{"glyphs":{"0":{"ha":702,"x_min":24,"x_max":677,"o":"m 277 986 q 341 1013 307 1013 q 418 977 376 1013 q 676 532 676 750 q 413 59 676 298 q 328 20 369 20 q 250 59 288 20 q 24 523 24 291 q 277 986 24 755 m 189 777 q 144 674 144 747 q 221 460 144 601 q 409 273 323 273 q 457 289 434 273 q 505 393 505 319 q 430 605 505 467 q 239 793 326 793 q 189 777 214 793 z "},"1":{"ha":499,"x_min":1,"x_max":475,"o":"m 475 1017 l 466 81 q 136 -12 319 76 l 96 43 q 244 243 203 54 q 269 493 269 359 q 259 749 269 627 l 11 751 l 1 807 q 475 1017 264 859 z "},"2":{"ha":743,"x_min":14,"x_max":686,"o":"m 686 320 l 634 21 q 353 42 490 42 q 14 21 193 42 q 178 180 98 99 q 336 360 259 260 q 444 600 444 503 q 293 786 444 703 q 256 798 271 798 q 229 789 241 798 q 216 765 216 781 q 224 732 216 749 q 282 662 242 689 q 359 613 321 635 q 290 516 325 564 q 221 421 255 469 q 64 644 64 559 q 179 850 64 729 q 370 970 294 970 q 555 870 447 970 q 663 672 663 770 q 626 564 663 616 q 357 245 523 418 l 479 245 q 541 245 510 245 q 661 339 625 247 q 686 320 669 332 z "},"3":{"ha":696,"x_min":14,"x_max":684,"o":"m 485 666 q 666 352 666 505 q 541 123 666 223 q 283 12 399 12 q 227 19 254 12 q 14 218 91 54 q 103 317 58 268 q 194 416 149 366 q 300 149 224 220 q 374 117 333 117 q 462 167 414 117 q 509 262 509 217 q 473 351 509 308 q 229 507 395 441 q 425 746 316 612 q 289 757 342 757 q 203 751 236 757 q 120 669 119 740 q 97 680 109 674 q 75 690 85 685 q 118 852 98 777 q 163 1015 138 926 q 407 926 269 930 q 684 919 544 922 l 485 666 z "},"4":{"ha":667,"x_min":6,"x_max":652,"o":"m 353 441 q 353 491 353 452 q 344 634 353 530 l 554 866 q 533 452 536 625 q 652 469 589 458 l 648 264 l 535 266 q 554 64 540 142 q 251 3 435 53 q 338 269 313 122 l 6 275 l 312 994 l 576 1002 q 184 445 323 743 q 294 440 254 440 q 353 441 334 440 z "},"5":{"ha":669,"x_min":14,"x_max":612,"o":"m 91 517 q 194 1004 189 785 q 586 970 340 970 q 530 876 557 923 q 476 783 503 829 q 406 782 455 782 q 237 804 357 782 q 235 732 235 734 q 595 528 532 688 q 612 444 612 488 q 469 150 612 313 q 245 16 351 16 q 214 19 229 16 q 14 142 95 42 q 62 381 43 297 q 267 196 159 262 q 340 171 308 171 q 420 236 392 171 q 448 349 448 300 q 374 469 448 429 q 161 521 281 521 q 91 517 127 521 z "},"6":{"ha":647,"x_min":33,"x_max":608,"o":"m 317 1036 l 471 956 q 261 809 321 913 q 198 587 201 705 l 388 735 q 585 523 533 639 q 608 409 608 473 q 572 269 608 345 q 476 143 536 193 q 361 60 416 92 q 297 28 304 28 q 254 54 289 28 q 33 428 33 207 q 317 1036 33 688 m 201 515 q 256 318 214 387 q 342 222 298 249 q 424 196 385 196 q 463 218 463 196 q 412 467 461 374 q 289 545 370 545 q 256 543 275 545 q 201 515 237 540 z "},"7":{"ha":668,"x_min":20,"x_max":661,"o":"m 252 771 l 174 774 q 76 690 76 774 q 78 664 76 677 q 22 674 59 667 q 20 962 20 888 q 661 946 237 955 q 458 530 525 756 q 366 21 372 239 q 239 32 289 27 q 113 43 189 37 q 265 412 163 231 q 464 776 367 593 q 252 771 464 776 z "},"8":{"ha":649,"x_min":20,"x_max":619,"o":"m 310 1007 q 310 1006 310 1007 q 347 1021 328 1021 q 384 1010 366 1021 q 495 927 437 977 q 579 848 553 878 q 604 809 604 817 q 589 771 604 802 q 425 607 564 718 q 604 448 532 508 q 619 395 619 422 q 582 314 619 368 q 492 180 545 260 q 355 51 439 99 q 309 35 328 35 q 277 45 290 35 q 152 152 208 102 q 41 271 96 203 q 20 324 20 303 q 24 356 20 345 q 198 541 91 456 q 60 655 110 606 q 49 695 49 669 q 65 764 49 722 q 310 1007 176 923 m 264 492 q 242 477 254 484 q 215 458 231 469 q 199 435 199 448 q 203 414 199 422 q 384 204 259 270 q 407 198 396 198 q 425 206 417 198 l 458 240 q 466 267 466 249 q 441 320 466 285 q 264 492 372 410 m 367 659 q 399 681 378 666 q 420 708 420 695 q 414 732 420 722 q 282 854 363 817 q 269 857 275 857 q 231 825 248 857 q 222 799 222 812 q 235 776 222 787 q 367 659 305 715 z "},"9":{"ha":637,"x_min":37,"x_max":608,"o":"m 328 21 l 173 101 q 383 248 323 143 q 446 469 444 353 l 256 323 q 59 534 110 417 q 37 648 37 585 q 73 790 37 712 q 172 919 109 867 q 282 996 235 970 q 348 1022 329 1022 q 386 1008 366 1022 q 607 619 607 841 q 328 21 607 365 m 444 543 q 388 739 431 669 q 301 834 345 808 q 219 861 258 861 q 181 839 181 861 q 231 590 181 684 q 355 511 273 511 q 389 514 369 511 q 444 543 408 517 z "}," ":{"ha":339,"x_min":0,"x_max":0,"o":""},"!":{"ha":308,"x_min":8,"x_max":296,"o":"m 156 300 l 296 161 l 156 21 l 16 161 l 156 300 m 8 913 l 240 1110 l 218 432 l 96 323 q 84 677 96 513 q 8 913 71 841 z "},"\"":{"ha":395,"x_min":12,"x_max":382,"o":"m 170 603 q 232 803 232 709 q 216 903 232 850 l 382 1010 q 206 597 361 792 l 170 603 m 12 633 q 74 833 74 743 q 57 933 74 881 l 224 1040 q 162 814 212 915 q 47 627 113 713 l 12 633 z "},"#":{"ha":750,"x_min":83,"x_max":665,"o":"m 492 301 l 461 53 l 383 53 l 414 301 l 292 301 l 262 53 l 184 53 l 215 301 l 83 301 l 94 389 l 225 389 l 240 525 l 111 525 l 122 614 l 252 614 l 279 840 l 355 840 l 328 614 l 452 614 l 478 840 l 555 840 l 528 614 l 665 614 l 657 525 l 517 525 l 501 389 l 640 389 l 629 301 l 492 301 m 440 525 l 318 525 l 302 389 l 424 389 l 440 525 z "},"$":{"ha":629,"x_min":36,"x_max":591,"o":"m 453 685 q 328 774 401 774 q 295 769 316 774 q 251 744 273 764 q 228 690 228 725 q 249 634 228 656 q 285 603 269 612 q 310 587 301 593 q 326 578 319 582 l 453 497 q 553 404 514 460 q 591 274 591 349 q 500 46 591 127 q 401 -4 465 12 q 393 -7 397 -5 q 385 -9 389 -8 l 385 -121 l 288 -121 l 288 -11 q 142 49 200 3 q 36 183 83 96 l 160 271 q 230 182 192 212 q 329 151 268 151 q 410 178 376 151 q 443 244 443 205 q 424 302 443 282 q 392 331 406 322 q 377 340 379 339 q 372 343 375 342 l 253 412 q 130 516 180 456 q 79 681 79 576 q 113 810 79 750 q 197 901 146 869 q 288 936 229 922 l 288 1043 l 385 1043 l 385 936 q 495 877 447 914 q 575 770 543 839 l 453 685 z "},"%":{"ha":1072,"x_min":42,"x_max":1021,"o":"m 210 904 q 252 922 229 922 q 302 898 275 922 q 473 604 473 748 q 299 292 473 450 q 243 266 270 266 q 192 292 217 266 q 43 598 43 445 q 210 904 43 751 m 151 766 q 121 697 121 746 q 172 557 121 649 q 296 433 240 433 q 328 444 313 433 q 359 513 359 464 q 310 652 359 562 q 184 777 241 777 q 151 766 168 777 m 245 -47 q 232 -33 232 -47 q 233 -26 232 -30 l 741 960 q 753 966 744 966 l 801 966 q 814 960 810 966 q 814 947 818 954 l 308 -40 q 297 -47 305 -47 l 245 -47 m 758 639 q 800 656 777 656 q 851 633 823 656 q 1021 339 1021 483 q 848 26 1021 184 q 792 1 819 1 q 741 26 765 1 q 591 333 591 180 q 758 639 591 486 m 700 500 q 670 432 670 481 q 721 292 670 384 q 845 168 789 168 q 877 178 861 168 q 908 248 908 199 q 859 387 908 296 q 732 511 790 511 q 700 500 716 511 z "},"&":{"ha":722,"x_min":39,"x_max":714,"o":"m 492 294 q 543 443 524 359 l 669 410 q 597 200 649 304 q 714 160 653 165 l 705 -4 q 555 36 619 1 q 501 68 532 49 q 304 -12 409 -12 q 119 56 199 -12 q 39 249 39 123 q 127 446 39 355 q 178 494 152 472 q 125 676 129 602 l 125 681 q 178 850 126 777 q 315 930 233 930 q 454 871 397 930 q 513 715 513 810 q 370 452 513 571 q 492 294 437 349 m 396 164 q 240 364 323 248 q 193 265 193 322 q 232 170 193 211 q 315 131 269 131 q 396 164 353 131 m 302 578 q 360 627 345 606 q 386 720 386 667 q 350 796 386 772 q 324 803 338 803 q 297 795 309 803 q 276 775 285 787 q 257 717 258 751 l 257 713 q 302 578 257 651 z "},"'":{"ha":235,"x_min":5,"x_max":189,"o":"m 5 1025 l 173 1137 q 188 1006 188 1071 q 79 674 188 833 q 87 790 87 739 q 82 884 87 842 q 5 1025 71 978 z "},"(":{"ha":381,"x_min":14,"x_max":373,"o":"m 14 879 l 346 1098 l 373 1059 q 243 806 286 994 q 195 397 195 597 q 228 49 195 198 q 336 -102 262 -100 q 242 -217 298 -217 q 193 -197 219 -217 q 58 121 105 -129 q 26 444 32 252 q 14 879 21 635 z "},")":{"ha":414,"x_min":11,"x_max":401,"o":"m 11 927 l 170 1110 q 362 912 325 1072 q 400 595 400 752 q 347 190 400 416 q 102 -262 293 -36 l 52 -217 q 220 152 199 -26 q 234 348 234 267 q 227 519 234 430 q 201 753 220 608 q 11 927 182 898 z "},"*":{"ha":745,"x_min":6,"x_max":737,"o":"m 6 416 l 182 608 l 342 461 l 168 288 q 6 416 101 344 m 210 637 l 416 863 q 460 760 425 810 q 541 659 495 709 l 370 489 l 210 637 m 569 630 q 657 537 612 583 q 737 445 702 491 l 595 282 l 399 462 l 569 630 m 366 25 q 197 261 366 112 l 371 434 l 569 252 l 366 21 q 366 25 366 23 z "},"+":{"ha":865,"x_min":5,"x_max":859,"o":"m 211 584 q 245 523 213 523 q 250 523 248 523 l 330 523 l 330 602 q 330 608 330 604 q 269 642 330 637 l 537 878 l 534 523 l 859 523 l 649 235 q 650 252 650 244 q 598 318 650 318 q 596 318 597 318 l 532 318 l 532 254 q 532 249 532 252 q 597 199 532 199 q 614 200 605 199 l 325 -9 l 328 318 l 5 318 l 211 584 z "},",":{"ha":340,"x_min":10,"x_max":339,"o":"m 159 370 l 339 95 l 10 -346 l 159 370 z "},"-":{"ha":576,"x_min":17,"x_max":570,"o":"m 570 564 q 424 312 484 414 q 313 313 379 313 q 163 309 246 313 q 17 256 42 303 q 78 408 47 332 q 139 560 109 484 q 194 506 145 506 q 197 506 195 506 l 454 513 q 570 564 511 515 z "},".":{"ha":342,"x_min":8,"x_max":334,"o":"m 171 347 l 334 184 l 171 21 l 8 184 l 171 347 z "},"/":{"ha":949,"x_min":1,"x_max":947,"o":"m 1 15 l 79 355 q 915 1046 385 408 l 947 1031 q 1 15 583 443 z "},":":{"ha":344,"x_min":9,"x_max":335,"o":"m 172 347 l 335 184 l 172 21 l 9 184 l 172 347 m 172 789 l 335 627 l 172 464 l 9 627 l 172 789 z "},";":{"ha":345,"x_min":5,"x_max":330,"o":"m 54 181 l 237 344 q 275 146 275 256 q 171 -275 275 -35 q 139 -27 163 -144 q 54 181 115 91 m 168 732 l 330 570 l 168 407 l 5 570 l 168 732 z "},"<":{"ha":551,"x_min":31,"x_max":532,"o":"m 31 390 l 428 762 l 526 664 l 231 399 l 532 122 l 428 18 l 31 390 z "},"=":{"ha":530,"x_min":14,"x_max":525,"o":"m 525 642 l 408 441 q 326 441 380 441 q 187 437 272 441 q 82 396 102 434 q 131 518 106 457 q 180 640 155 579 q 223 596 184 596 q 227 596 224 596 l 432 602 q 525 642 478 603 m 111 413 q 157 370 115 370 l 288 370 q 380 410 332 370 q 264 208 319 304 q 161 210 203 210 q 93 209 120 210 q 14 169 34 207 q 62 291 38 230 q 111 413 86 352 z "},">":{"ha":551,"x_min":20,"x_max":521,"o":"m 521 390 l 123 18 l 25 117 l 321 382 l 20 659 l 123 762 l 521 390 z "},"?":{"ha":370,"x_min":8,"x_max":340,"o":"m 187 300 l 327 161 l 187 21 l 47 161 l 187 300 m 317 479 l 170 320 q 30 451 88 355 q 202 807 202 694 q 197 841 202 826 q 8 956 163 947 l 200 1147 q 336 975 313 1085 q 340 936 340 957 q 242 666 340 832 q 197 556 197 588 q 210 513 197 524 q 317 479 248 479 z "},"@":{"ha":885,"x_min":62,"x_max":833,"o":"m 570 161 q 496 166 553 161 q 498 192 498 181 q 500 214 499 203 q 506 274 503 239 q 402 177 434 195 q 335 159 370 159 q 274 200 299 159 q 250 309 250 241 q 268 428 250 376 q 321 516 287 480 q 517 591 393 591 q 629 574 569 591 q 610 472 616 531 l 592 332 q 585 258 585 278 q 593 227 585 237 q 625 217 601 217 q 674 234 650 217 q 718 279 699 250 q 758 414 758 341 q 738 536 758 488 q 682 621 718 585 q 492 696 608 696 q 248 591 343 696 q 153 334 153 486 q 222 107 153 183 q 415 31 290 31 q 515 44 477 31 q 568 64 553 58 q 598 81 583 71 q 669 135 625 98 l 710 94 q 683 70 695 80 q 662 52 671 60 q 403 -28 562 -28 q 111 119 197 -28 q 62 302 62 202 q 98 485 62 402 q 194 629 134 568 q 337 727 255 691 q 510 762 418 762 q 751 665 667 762 q 833 439 833 569 q 764 235 833 309 q 570 161 695 161 m 383 235 q 469 298 417 235 q 505 353 498 333 q 519 422 512 375 l 525 472 q 526 486 526 479 l 526 498 q 466 535 526 535 q 376 477 410 535 q 340 327 340 419 q 383 235 340 235 z "},"A":{"ha":953,"x_min":11,"x_max":941,"o":"m 473 831 q 338 849 404 849 q 47 741 178 849 q 42 776 47 747 q 39 812 37 805 q 427 1041 217 958 q 930 817 701 960 q 893 774 916 793 q 856 732 871 756 q 851 696 851 720 l 851 659 l 856 296 q 872 241 858 252 l 941 184 l 821 21 l 666 153 q 681 431 681 259 l 427 431 q 280 24 401 191 q 62 -237 159 -142 q 11 -203 34 -216 q 129 -15 90 -121 q 195 209 168 91 q 223 439 223 326 q 174 651 223 552 q 473 831 338 733 m 678 591 q 677 690 677 671 q 677 732 677 709 q 536 810 610 780 q 463 728 488 774 q 433 591 438 682 l 678 591 z "},"B":{"ha":984,"x_min":15,"x_max":940,"o":"m 125 793 l 547 1041 q 885 852 706 981 q 726 743 808 800 q 939 439 939 578 q 910 338 939 387 q 462 8 801 160 q 15 196 267 181 l 187 321 l 191 654 q 125 793 193 737 m 618 771 q 408 875 523 842 l 407 628 l 618 771 m 616 157 q 725 363 725 252 q 684 496 725 435 q 564 581 644 556 q 495 590 535 590 q 406 562 456 590 l 405 380 l 336 338 q 616 157 534 239 z "},"C":{"ha":732,"x_min":21,"x_max":744,"o":"m 684 737 q 527 829 607 803 q 522 668 522 765 q 543 444 522 571 l 329 349 q 473 264 383 292 q 580 248 523 248 q 698 258 637 248 l 580 10 q 268 135 382 75 q 97 278 153 196 q 28 476 40 360 q 21 625 21 549 q 24 766 21 701 l 581 1041 l 744 923 l 684 737 m 337 822 q 225 625 225 768 q 289 398 225 496 q 342 511 332 427 q 347 615 347 545 q 337 822 347 685 z "},"D":{"ha":878,"x_min":3,"x_max":861,"o":"m 152 340 q 157 460 157 404 q 153 568 157 517 q 81 735 143 674 q 386 800 240 743 q 32 874 238 874 q 10 874 21 874 l 233 1041 q 697 819 546 993 q 861 362 849 646 l 461 21 q 3 183 268 119 l 152 340 m 418 783 q 385 708 397 744 q 372 640 372 673 q 373 558 372 608 q 378 464 374 508 q 401 360 381 420 q 374 361 387 361 q 243 334 305 361 q 496 215 406 215 q 559 236 534 215 q 635 422 635 300 q 579 624 635 530 q 418 783 523 719 z "},"E":{"ha":824,"x_min":17,"x_max":821,"o":"m 821 912 l 706 778 q 499 865 600 851 q 491 732 493 807 l 771 732 l 771 572 l 494 572 q 510 393 496 495 l 354 336 q 711 220 482 220 q 764 222 736 220 l 615 21 q 172 224 327 52 q 17 732 17 397 l 543 1041 q 821 912 639 975 m 302 391 l 352 408 q 332 665 332 557 q 335 839 332 774 q 269 791 294 819 q 232 739 243 764 q 221 667 221 713 q 222 597 221 621 q 302 391 227 490 z "},"F":{"ha":693,"x_min":18,"x_max":680,"o":"m 385 -61 q 406 -26 406 -61 q 376 84 406 8 q 287 277 347 159 q 154 522 227 394 q 25 753 82 649 q 345 1041 231 883 q 680 930 498 986 q 537 750 609 840 q 430 819 515 783 q 313 854 344 854 q 273 844 281 854 q 265 820 265 835 q 320 642 265 774 q 431 640 355 640 q 652 657 508 640 q 625 496 637 576 l 380 509 q 591 137 479 298 q 311 -252 475 -22 q 18 21 146 -170 q 100 228 49 99 q 262 31 169 122 q 385 -61 355 -61 z "},"G":{"ha":998,"x_min":51,"x_max":980,"o":"m 755 733 q 980 484 901 617 q 505 21 825 169 q 51 575 51 204 q 54 630 51 602 q 523 1041 265 937 q 909 880 664 943 l 755 733 m 509 847 q 503 726 503 779 q 505 637 503 673 q 581 706 542 671 q 658 777 621 741 q 509 847 600 822 m 506 604 q 519 440 509 522 q 353 347 448 427 q 480 254 408 296 q 614 212 551 212 q 649 215 631 212 q 774 315 761 233 q 778 357 778 336 q 751 458 778 414 q 665 545 725 503 q 506 604 604 587 m 302 397 q 323 486 320 435 l 329 722 q 309 800 330 752 q 289 778 298 791 q 227 592 227 695 q 302 397 227 480 z "},"H":{"ha":835,"x_min":18,"x_max":821,"o":"m 26 827 q 410 1041 227 940 q 707 939 566 971 l 518 808 q 437 837 475 817 q 371 863 399 856 q 321 869 343 869 q 282 848 299 869 q 264 808 264 826 q 265 783 264 789 l 264 597 l 512 753 q 821 406 678 604 q 688 87 764 241 q 496 -196 613 -66 q 397 -252 444 -252 q 347 -235 370 -252 q 308 -202 325 -218 q 273 -170 291 -186 q 536 20 462 -124 q 588 218 588 119 q 575 319 588 262 q 488 492 562 376 q 380 565 442 565 q 300 539 342 565 q 264 517 288 532 l 264 313 q 278 277 262 286 q 316 260 293 269 q 379 240 340 252 q 473 227 418 227 l 323 21 q 18 126 146 61 q 66 485 66 309 q 26 827 66 660 z "},"I":{"ha":720,"x_min":19,"x_max":699,"o":"m 699 1028 q 614 876 635 917 q 642 595 629 706 q 654 444 654 484 q 610 265 654 330 q 483 157 547 221 q 352 21 418 92 q 76 152 233 77 q 19 234 19 175 q 25 282 19 250 q 39 363 31 315 q 56 459 47 411 q 214 305 130 362 q 387 213 298 248 q 417 208 399 208 q 455 232 435 208 q 475 295 475 256 q 469 395 475 335 q 447 547 463 454 q 418 732 431 639 q 530 839 471 775 q 418 834 484 834 q 287 847 352 834 q 182 861 221 861 q 45 825 104 861 q 142 1059 77 950 q 593 1027 341 1027 q 699 1028 644 1027 z "},"J":{"ha":761,"x_min":4,"x_max":746,"o":"m 8 702 q 196 1059 8 702 q 492 1015 355 1015 q 746 1041 629 1015 q 697 866 697 943 q 702 809 697 854 q 706 690 706 764 q 582 178 706 394 q 112 -268 427 -92 q 58 -228 85 -248 q 4 -187 30 -208 q 169 -142 91 -170 q 311 -43 248 -115 q 488 525 448 112 q 413 526 457 526 q 169 492 308 526 q 233 612 201 552 q 298 732 264 671 q 505 693 389 694 q 538 841 517 791 q 474 842 505 842 q 239 817 352 842 q 8 702 125 791 z "},"K":{"ha":981,"x_min":30,"x_max":957,"o":"m 35 814 q 96 1041 48 860 q 291 1025 193 1034 q 488 1010 389 1017 q 429 850 437 922 q 420 737 420 778 q 422 672 420 696 q 559 840 492 744 q 695 1041 627 937 q 957 694 829 829 l 716 581 l 956 152 q 739 21 806 62 q 528 492 633 288 l 425 442 q 404 358 418 397 q 353 293 390 320 q 286 234 315 265 q 359 218 332 218 q 507 232 433 218 l 391 21 q 30 75 242 64 q 194 400 168 196 q 221 820 221 605 q 221 831 221 825 q 186 831 208 831 q 35 814 153 831 m 429 529 q 693 672 576 593 q 613 774 648 708 l 428 547 q 429 529 428 536 z "},"L":{"ha":791,"x_min":14,"x_max":770,"o":"m 761 932 q 573 910 665 930 q 566 789 566 861 q 578 650 566 716 q 591 552 591 585 q 508 431 591 496 q 406 347 457 388 q 303 264 354 305 q 743 208 511 208 q 770 208 756 208 q 719 130 739 157 q 669 54 700 103 q 602 21 647 21 q 502 38 582 21 q 285 82 421 55 q 14 138 149 110 q 155 370 128 276 q 166 456 166 409 q 134 576 166 503 q 89 704 102 650 q 75 777 75 758 q 112 840 75 824 q 346 931 224 890 q 549 1007 467 973 q 659 1042 630 1042 q 705 1029 688 1042 q 761 932 743 1002 m 412 609 l 402 767 q 408 852 402 809 q 364 828 393 845 q 307 742 307 793 q 340 585 307 724 q 353 486 353 528 q 349 415 353 444 q 398 506 383 440 q 412 609 412 572 z "},"M":{"ha":1279,"x_min":28,"x_max":1251,"o":"m 455 224 l 342 21 q 28 181 146 120 q 196 378 179 321 q 199 402 199 389 q 142 591 199 467 q 67 761 86 715 q 49 833 49 808 q 57 876 49 858 q 146 953 76 918 q 361 1041 217 988 q 391 970 381 994 q 291 895 300 940 q 289 875 289 886 q 315 783 289 836 q 576 1041 554 1018 q 679 965 637 1001 q 781 899 722 928 l 917 1041 q 1080 953 998 997 q 1251 878 1162 909 q 1136 625 1142 804 l 1128 373 q 1128 358 1128 366 q 1206 224 1128 248 l 1099 21 q 963 133 1000 57 q 925 342 925 208 q 925 361 925 351 l 926 532 q 949 640 926 593 q 1007 732 971 686 q 803 840 871 832 q 777 749 777 802 q 774 625 777 696 l 766 373 q 766 358 766 366 q 831 214 766 235 l 672 21 q 589 109 635 67 q 503 184 543 150 q 543 259 523 208 q 563 361 562 310 l 587 781 q 495 825 528 825 q 480 822 487 825 q 351 713 448 808 l 359 698 q 410 541 410 603 q 406 509 410 524 q 277 296 388 440 q 455 224 341 250 z "},"N":{"ha":932,"x_min":25,"x_max":908,"o":"m 452 224 l 338 21 q 25 181 142 120 q 193 378 176 321 q 195 402 195 389 q 139 591 195 467 q 64 761 83 715 q 45 833 45 808 q 54 876 45 858 q 143 953 73 918 q 357 1041 214 988 q 387 970 378 994 q 287 891 292 939 q 286 878 286 885 q 317 770 286 834 q 448 912 379 837 q 570 1041 517 987 q 734 953 651 997 q 908 878 818 909 q 793 625 798 804 l 784 373 q 784 359 784 366 q 863 224 784 249 q 755 21 807 123 q 619 133 657 57 q 581 347 581 210 q 581 361 581 353 l 583 532 q 605 640 583 593 q 663 732 627 686 q 524 785 592 785 q 355 700 448 785 l 356 698 q 407 541 407 603 q 403 509 407 524 q 274 296 385 440 q 452 224 338 250 z "},"O":{"ha":1103,"x_min":23,"x_max":1081,"o":"m 635 1041 q 628 892 629 954 q 693 957 661 924 q 758 1019 726 991 q 1081 684 855 820 q 1023 397 1080 522 q 886 189 966 273 q 719 63 806 105 q 570 20 631 20 q 169 204 282 20 q 23 632 55 387 q 279 900 132 790 q 635 1041 425 1010 m 627 805 q 702 336 630 495 q 479 197 532 295 q 621 157 546 157 q 635 157 628 157 q 811 219 742 161 q 892 395 892 287 q 836 582 892 475 q 627 805 780 688 m 418 243 q 444 430 444 315 q 443 500 444 441 q 439 669 441 559 q 423 885 438 778 q 274 610 274 798 q 275 578 274 595 q 418 243 288 366 z "},"P":{"ha":880,"x_min":27,"x_max":842,"o":"m 103 -237 q 172 173 156 -84 l 33 223 l 179 362 q 179 498 179 393 q 170 825 179 602 q 99 858 135 842 q 27 892 62 875 l 144 1041 q 412 961 330 987 q 408 918 410 939 q 405 876 407 896 l 611 1041 q 842 627 842 867 q 839 575 842 601 q 597 21 812 301 l 380 99 q 406 -47 386 -10 q 103 -237 295 -115 m 604 224 q 688 353 688 224 q 646 577 688 462 q 532 758 604 692 q 477 785 504 785 q 395 723 435 785 q 377 328 380 500 l 600 224 q 604 224 602 224 z "},"Q":{"ha":1096,"x_min":16,"x_max":1685,"o":"m 628 1041 q 621 892 622 954 q 686 957 654 924 q 751 1019 719 991 q 1074 684 848 820 q 1023 414 1073 532 q 901 213 974 296 q 1556 -137 1079 -137 q 1685 -131 1618 -137 l 1683 -197 q 1403 -224 1542 -224 q 1133 -184 1263 -224 q 718 65 895 -113 q 563 20 631 20 q 162 204 275 20 q 16 632 48 387 q 272 900 125 790 q 628 1041 418 1010 m 621 805 q 695 336 623 495 q 473 197 525 295 q 614 157 539 157 q 628 157 621 157 q 804 219 735 161 q 886 395 886 287 q 829 582 886 475 q 621 805 773 688 m 412 243 q 437 430 437 315 q 436 500 437 441 q 433 669 434 559 q 416 885 431 778 q 267 610 267 798 q 269 578 267 595 q 412 243 281 366 z "},"R":{"ha":976,"x_min":24,"x_max":991,"o":"m 24 149 q 211 553 211 322 q 147 844 211 686 q 34 861 106 861 q 28 861 31 861 l 254 1041 q 396 866 361 973 l 524 1041 q 942 825 783 906 q 694 693 760 728 q 791 469 744 581 q 895 249 838 357 q 991 181 922 195 q 874 101 932 140 q 757 21 815 61 q 479 632 632 335 q 574 694 526 663 q 669 757 621 726 q 475 871 579 808 l 410 783 q 411 762 411 772 q 223 265 411 564 l 404 204 q 445 199 419 199 q 513 210 471 199 l 350 21 l 24 149 z "},"S":{"ha":1000,"x_min":28,"x_max":987,"o":"m 674 1000 q 803 969 737 969 q 960 1019 868 969 l 987 987 q 743 769 886 769 q 637 792 703 769 q 372 855 454 855 q 295 848 334 855 q 189 723 189 825 q 208 654 189 686 q 315 596 242 596 q 447 726 389 596 q 566 736 510 736 q 762 697 677 736 q 929 532 888 638 q 946 429 946 488 q 912 293 946 370 q 675 42 854 160 q 600 20 642 20 q 506 32 557 20 q 255 136 370 60 q 64 343 140 211 q 28 477 28 404 q 28 494 28 486 q 289 1023 52 824 q 412 1061 334 1061 q 674 1000 544 1059 m 218 522 q 414 310 244 403 q 652 240 542 240 q 724 248 689 240 q 829 302 793 262 q 868 393 868 345 q 829 486 868 441 q 706 546 790 532 q 675 547 698 547 q 602 528 653 547 q 499 420 537 503 q 487 420 493 420 q 218 522 366 420 z "},"T":{"ha":855,"x_min":18,"x_max":906,"o":"m 18 496 q 345 854 143 669 q 275 881 312 881 q 51 810 222 881 l 214 1059 q 582 1039 412 1039 q 906 1059 751 1039 q 802 817 831 886 q 645 865 726 848 l 650 309 q 423 221 530 295 q 631 150 510 150 q 896 224 753 150 q 892 132 893 178 q 315 77 519 -39 q 18 496 112 194 m 414 783 q 290 578 309 684 q 283 492 283 543 q 309 379 283 442 q 376 268 335 315 q 427 416 425 316 q 432 670 432 604 q 414 783 432 736 z "},"U":{"ha":954,"x_min":52,"x_max":926,"o":"m 781 21 q 591 142 686 81 q 622 276 610 206 l 391 21 q 243 113 333 73 q 52 188 154 153 q 221 395 187 278 q 231 460 231 427 q 160 654 231 549 q 89 852 89 759 q 272 1103 89 998 q 345 1062 307 1082 q 238 928 238 989 q 245 899 238 913 q 445 774 279 828 q 445 761 445 768 q 319 336 445 549 q 479 267 427 267 q 635 397 528 267 q 640 549 640 458 q 628 771 640 639 q 629 783 629 777 q 601 832 629 813 q 543 875 573 852 l 705 1054 q 901 935 777 1008 q 851 819 857 876 q 846 702 846 762 l 842 437 q 842 414 842 425 q 860 286 842 331 q 926 222 879 240 l 781 21 z "},"V":{"ha":836,"x_min":31,"x_max":800,"o":"m 245 1074 q 222 1014 222 1044 q 252 957 222 984 q 349 817 322 892 l 563 1059 q 736 825 673 941 q 800 593 800 710 q 796 530 800 562 q 691 308 781 423 q 496 37 601 193 q 59 146 395 96 q 121 247 92 191 q 153 374 151 303 l 161 604 q 161 612 161 608 q 92 754 161 701 q 31 865 31 802 q 65 956 31 906 l 125 1042 q 195 1082 152 1082 q 245 1074 220 1082 m 489 777 q 450 803 475 803 q 364 741 425 803 q 366 704 366 718 q 366 685 366 690 l 352 311 l 556 245 q 615 396 615 306 q 606 472 615 432 q 489 777 573 614 z "},"W":{"ha":1219,"x_min":31,"x_max":1164,"o":"m 829 21 q 519 147 699 80 l 422 21 q 43 118 174 83 q 177 266 140 216 q 214 350 214 315 q 198 418 214 385 l 52 773 q 31 838 31 823 q 33 857 31 853 q 75 920 37 883 l 256 1088 q 308 1074 281 1081 q 360 1059 334 1067 q 269 899 269 956 q 298 798 269 856 q 541 1059 411 886 l 733 864 q 970 1059 821 915 q 1145 669 1095 848 q 1164 545 1164 603 q 1104 366 1164 448 q 972 197 1045 284 q 829 21 899 109 m 755 760 l 739 279 q 886 218 795 254 q 970 410 970 300 q 963 475 970 441 q 823 810 932 628 l 755 760 m 349 702 q 417 510 417 572 q 281 268 417 448 q 442 218 389 218 q 532 267 496 218 q 549 549 549 445 q 543 732 549 652 q 454 839 488 797 l 347 705 l 349 702 z "},"X":{"ha":941,"x_min":26,"x_max":916,"o":"m 285 312 q 283 246 283 283 q 294 109 283 209 q 26 5 179 81 q 327 610 85 252 l 332 617 l 258 732 q 184 838 220 790 q 128 872 163 866 q 58 878 93 878 q 157 980 101 930 q 309 1079 214 1029 q 376 956 358 988 q 452 824 418 882 l 465 803 l 479 823 q 529 888 503 855 q 579 953 554 922 q 630 1017 605 985 q 683 1081 656 1048 q 745 1055 715 1068 q 805 1030 776 1042 q 916 983 871 1002 l 787 769 q 618 876 702 848 q 567 816 589 844 q 532 773 544 788 q 503 737 519 759 l 509 729 q 770 330 623 534 q 854 258 807 279 q 911 238 879 243 q 654 1 783 102 q 622 66 638 33 q 572 164 605 99 q 387 522 456 398 l 373 547 l 359 522 q 285 312 290 394 z "},"Y":{"ha":913,"x_min":-40,"x_max":888,"o":"m 467 -383 q 233 -317 357 -383 q 124 -291 184 -291 q -16 -341 65 -291 l -40 -309 q 61 -143 6 -194 q 178 -92 115 -92 q 274 -115 214 -92 q 511 -178 437 -178 q 671 -90 649 -178 q 677 -37 677 -66 q 663 17 677 -7 q 616 134 649 42 q 583 264 583 227 q 584 276 583 271 l 353 21 q 205 113 295 73 q 14 188 115 153 q 183 395 149 278 q 193 460 193 427 q 121 654 193 549 q 50 852 50 759 q 234 1103 50 998 q 270 1082 252 1093 q 306 1062 288 1072 q 200 929 200 989 q 207 899 200 913 q 407 774 241 828 q 407 770 407 772 q 281 336 407 549 q 441 267 389 267 q 597 397 490 267 q 602 551 602 460 q 589 771 602 643 q 590 783 590 777 q 563 832 590 813 q 505 875 535 852 l 667 1054 q 863 935 723 1019 q 813 819 819 876 q 807 702 808 762 l 804 437 q 804 414 804 425 q 822 286 804 331 q 888 222 841 240 q 768 -61 831 143 q 588 -345 705 -265 q 467 -383 530 -383 z "},"Z":{"ha":823,"x_min":34,"x_max":802,"o":"m 419 1029 l 588 1031 q 787 1027 688 1031 l 515 737 q 745 507 686 618 q 802 283 804 396 q 740 51 801 170 q 581 -158 678 -68 q 362 -288 484 -247 q 237 -310 298 -310 q 117 -292 176 -310 q 37 -137 37 -266 q 37 -114 37 -126 q 88 132 45 35 q 415 445 167 306 q 220 547 351 494 l 486 797 q 301 824 405 824 q 34 757 151 824 l 138 1059 q 419 1029 272 1029 m 257 -131 q 355 -158 305 -158 q 456 -132 405 -158 q 579 -31 559 -78 q 608 98 608 20 q 542 303 608 215 q 465 310 511 310 q 345 279 420 310 q 228 198 271 248 q 163 42 186 149 q 159 8 159 24 q 257 -131 159 -75 z "},"[":{"ha":323,"x_min":73,"x_max":349,"o":"m 87 -53 q 73 -40 73 -53 l 73 1021 q 87 1034 73 1034 l 336 1034 q 349 1021 349 1034 l 349 990 q 336 977 349 977 l 238 974 l 238 7 l 333 7 q 347 -7 347 7 l 347 -40 q 333 -53 347 -53 l 87 -53 z "},"\\":{"ha":537,"x_min":20,"x_max":510,"o":"m 510 1 l 416 1 l 20 1044 l 113 1044 l 510 1 z "},"]":{"ha":339,"x_min":-5,"x_max":268,"o":"m 8 -52 q -5 -39 -5 -52 l -5 -6 q 8 7 -5 7 l 111 7 l 111 973 l 8 973 q -5 987 -5 973 l -5 1021 q 8 1034 -5 1034 l 256 1034 q 268 1021 268 1034 l 268 -39 q 256 -52 268 -52 l 8 -52 z "},"^":{"ha":406,"x_min":26,"x_max":370,"o":"m 41 790 q 26 802 26 790 q 28 809 26 805 l 153 1030 q 164 1036 157 1036 l 233 1036 q 245 1030 241 1036 l 367 809 q 369 802 369 805 q 356 790 369 790 l 326 790 q 316 793 319 790 l 197 913 q 77 791 81 792 q 70 790 72 790 l 41 790 z "},"_":{"ha":821,"x_min":-8,"x_max":832,"o":"m -8 -196 q 5 -183 -8 -183 l 818 -183 q 832 -196 832 -183 l 829 -257 q 815 -271 829 -271 l 5 -271 q -8 -257 -8 -271 l -8 -196 z "},"`":{"ha":353,"x_min":119,"x_max":309,"o":"m 275 1139 q 309 899 309 1028 q 309 876 309 887 l 119 1114 l 275 1139 z "},"a":{"ha":625,"x_min":25,"x_max":603,"o":"m 25 515 l 290 730 l 589 589 q 536 486 536 543 l 533 261 q 557 209 533 238 q 603 162 581 180 l 466 21 l 361 129 q 284 73 323 98 q 215 20 245 47 q 25 137 113 58 q 54 230 50 169 l 52 435 q 52 440 52 437 q 25 515 52 480 m 258 567 q 218 462 218 508 l 218 296 q 237 223 218 245 q 266 183 252 201 q 308 157 279 165 l 363 197 l 363 509 l 258 567 z "},"b":{"ha":595,"x_min":21,"x_max":578,"o":"m 21 878 l 28 909 q 319 1041 163 957 l 362 1015 q 265 797 266 957 l 264 657 l 377 747 q 472 663 429 725 q 576 392 561 535 q 578 348 578 375 q 563 302 578 321 l 338 9 l 47 154 q 79 232 64 191 q 94 323 94 274 l 89 793 q 21 878 89 844 m 264 576 l 262 283 q 309 230 269 249 q 363 212 349 212 q 382 213 377 212 q 441 289 441 228 q 437 321 441 304 q 371 494 414 435 q 264 576 327 552 z "},"c":{"ha":532,"x_min":22,"x_max":522,"o":"m 469 245 l 240 20 q 23 355 23 163 q 84 541 23 449 q 281 741 145 632 q 401 666 339 703 q 522 594 463 630 l 387 475 q 322 518 346 500 q 271 548 298 536 q 232 560 244 560 q 207 547 220 560 q 165 450 165 504 q 275 249 165 356 q 328 223 302 223 q 411 286 374 223 q 440 266 425 275 q 469 245 454 256 z "},"d":{"ha":571,"x_min":23,"x_max":555,"o":"m 242 695 q 104 882 190 784 l 284 977 q 555 274 528 679 q 412 156 471 210 q 315 21 353 102 q 166 89 241 54 q 30 180 92 123 q 26 385 27 282 q 23 591 24 488 q 242 695 186 666 m 381 194 q 381 208 381 201 q 274 642 381 436 q 186 514 200 606 q 181 422 181 478 q 195 279 181 367 q 381 194 290 203 z "},"e":{"ha":538,"x_min":25,"x_max":525,"o":"m 353 21 l 28 151 q 46 362 46 252 q 25 593 46 473 l 259 730 l 259 732 l 260 732 l 261 732 l 525 543 l 250 254 q 312 217 278 220 q 368 214 346 214 q 420 216 390 214 q 494 220 450 218 q 423 120 458 170 q 353 21 388 71 m 240 549 q 201 442 201 549 q 221 320 201 381 q 223 310 221 314 l 332 425 q 344 450 344 437 q 332 481 344 462 q 308 512 320 500 q 240 549 265 549 z "},"f":{"ha":376,"x_min":24,"x_max":519,"o":"m 397 815 q 278 854 347 846 q 242 802 266 836 q 262 733 255 774 l 372 733 l 372 562 l 272 562 q 270 433 272 498 q 266 311 267 368 q 79 -268 262 182 q 24 -235 54 -243 q 80 124 71 -68 q 89 444 89 317 q 86 672 89 572 q 31 770 85 727 q 138 892 90 832 q 245 1015 186 953 q 379 994 308 1008 q 519 966 451 979 q 458 890 489 927 q 397 815 428 852 z "},"g":{"ha":658,"x_min":22,"x_max":640,"o":"m 45 515 l 310 730 l 594 589 q 542 486 542 543 l 539 261 q 579 170 538 238 q 640 83 620 101 l 372 -224 q 22 -176 214 -189 l 197 45 q 47 137 109 81 q 75 230 69 167 l 74 435 q 45 515 75 479 m 475 -10 q 390 208 397 79 l 204 -29 q 434 -63 311 -29 l 475 -10 m 386 286 l 384 509 l 264 567 q 224 462 224 508 l 224 296 q 240 226 224 245 q 267 193 255 206 q 296 171 278 180 l 386 286 z "},"h":{"ha":605,"x_min":14,"x_max":581,"o":"m 364 176 q 214 10 248 47 q 114 86 163 48 q 14 163 64 125 q 75 237 60 203 q 90 301 89 271 l 93 711 q 89 817 93 755 q 59 920 85 878 l 283 1041 q 261 872 264 960 q 258 694 258 785 l 258 631 l 391 732 q 580 324 580 553 q 382 -233 580 71 l 281 -201 q 434 182 434 -33 q 258 564 434 410 l 256 296 q 265 239 256 245 q 364 176 275 232 z "},"i":{"ha":319,"x_min":20,"x_max":304,"o":"m 20 604 l 122 732 l 274 661 q 256 607 266 633 q 247 553 247 581 l 237 277 q 237 271 237 274 q 258 218 237 239 q 304 186 278 197 l 169 21 l 25 137 q 64 231 64 184 l 69 538 q 20 604 69 571 m 40 739 l 94 1006 l 296 926 l 40 739 z "},"j":{"ha":326,"x_min":20,"x_max":318,"o":"m 41 604 l 143 732 l 295 661 q 279 607 288 633 q 266 536 271 581 q 261 431 261 492 q 260 312 261 370 q 227 120 258 254 q 92 -268 196 -14 q 20 -235 71 -247 q 75 90 64 -75 q 89 420 86 256 l 91 538 q 41 604 91 571 m 61 739 l 115 1006 l 318 926 l 61 739 z "},"k":{"ha":482,"x_min":20,"x_max":509,"o":"m 370 176 q 220 10 254 47 q 20 163 102 100 q 96 301 94 228 l 98 488 l 34 488 l 98 610 l 99 711 q 95 817 99 755 q 65 920 92 878 l 289 1041 q 269 882 272 971 l 377 991 l 509 824 l 349 634 l 483 634 l 406 488 l 264 488 l 262 296 q 271 233 262 245 q 370 176 279 221 m 265 800 q 264 747 264 774 l 264 634 l 298 634 l 374 723 q 303 832 360 812 l 265 800 z "},"l":{"ha":377,"x_min":14,"x_max":364,"o":"m 364 176 q 214 10 248 47 q 114 86 163 48 q 14 163 64 125 q 75 237 60 203 q 90 301 89 271 l 93 711 q 89 817 93 755 q 59 920 85 878 l 283 1041 q 261 872 264 960 q 258 694 258 785 l 256 296 q 265 239 256 245 q 364 176 275 232 z "},"m":{"ha":916,"x_min":31,"x_max":888,"o":"m 278 631 l 359 732 l 532 604 l 635 732 l 851 576 l 831 496 l 822 277 q 822 271 822 274 q 842 218 822 239 q 888 186 863 197 l 753 21 q 676 91 703 60 q 649 216 649 121 q 649 231 649 223 l 654 481 q 581 570 654 509 l 553 522 l 543 277 q 543 273 543 275 q 564 219 543 240 q 610 186 584 197 l 475 21 l 330 137 q 370 231 369 182 l 374 481 q 295 576 374 511 l 255 528 l 249 277 q 269 219 248 241 q 316 186 290 197 l 180 21 l 37 137 q 76 231 76 184 l 81 538 q 31 604 81 571 l 134 732 l 278 632 l 278 631 z "},"n":{"ha":630,"x_min":28,"x_max":607,"o":"m 274 633 l 353 732 l 570 576 l 549 496 l 541 277 q 541 273 541 275 q 561 219 541 240 q 607 186 581 197 l 471 21 q 394 91 421 60 q 368 216 368 121 q 368 231 368 223 l 372 481 q 286 576 372 510 l 258 534 l 245 277 q 245 273 245 275 q 266 219 245 240 q 313 186 286 197 l 177 21 l 34 137 q 73 231 73 184 l 78 538 q 28 604 78 571 l 130 732 l 274 633 z "},"o":{"ha":586,"x_min":20,"x_max":560,"o":"m 54 543 q 317 735 212 649 q 422 655 369 713 q 557 399 536 532 q 560 369 560 383 q 535 296 560 324 l 310 9 l 20 153 q 66 318 66 248 l 64 476 q 54 543 62 525 m 237 567 l 235 279 q 281 227 241 245 q 335 208 322 208 q 353 210 349 208 q 413 285 413 223 q 410 317 413 299 q 343 486 387 429 q 237 567 299 543 z "},"p":{"ha":640,"x_min":1,"x_max":623,"o":"m 284 -170 q 46 -270 168 -189 l 12 -233 q 68 -151 33 -221 q 104 -24 104 -81 l 106 115 l 9 153 q 60 233 33 198 q 107 310 87 267 l 108 449 q 63 535 108 503 q 1 579 19 567 l 153 735 l 283 616 l 379 735 q 484 655 431 713 q 620 399 599 532 q 623 369 623 383 q 597 296 623 324 l 372 9 l 277 47 l 276 21 q 276 6 276 16 q 284 -170 276 -3 m 281 252 q 407 208 374 208 q 416 210 412 208 q 475 284 475 223 q 472 317 475 299 q 411 459 455 403 q 317 547 367 515 q 296 510 306 529 q 286 463 286 491 l 281 252 z "},"q":{"ha":597,"x_min":11,"x_max":573,"o":"m 11 515 l 275 730 l 559 589 q 517 486 518 553 l 515 -19 q 534 -70 515 -41 q 573 -118 552 -98 l 452 -258 q 382 -197 416 -231 q 347 -101 347 -163 l 347 129 q 270 73 309 98 q 201 20 231 47 q 11 137 99 58 q 40 230 35 169 l 38 435 q 38 440 38 437 q 11 515 38 480 m 240 567 q 200 462 200 509 l 200 296 q 217 223 200 245 q 250 183 235 201 q 293 157 264 165 l 349 197 l 349 509 l 240 567 z "},"r":{"ha":550,"x_min":24,"x_max":541,"o":"m 268 633 l 356 723 q 541 532 492 629 l 432 387 q 382 481 414 440 q 277 564 351 522 l 255 534 l 242 302 q 287 229 240 267 q 359 180 334 191 l 247 21 l 37 184 q 76 278 75 230 l 75 538 q 24 604 73 571 l 127 732 l 268 633 z "},"s":{"ha":608,"x_min":18,"x_max":590,"o":"m 18 147 l 136 271 q 45 464 72 356 q 286 732 127 598 q 574 667 412 698 l 590 671 l 463 541 l 574 262 q 342 21 448 168 q 18 147 210 99 m 376 194 q 445 243 445 194 q 347 422 445 286 l 184 254 q 376 194 290 194 m 269 410 l 401 545 q 243 577 283 577 q 198 569 203 577 q 194 555 194 562 q 269 410 194 516 z "},"t":{"ha":393,"x_min":13,"x_max":377,"o":"m 363 186 l 212 21 q 112 97 162 59 q 13 174 62 136 q 88 312 87 239 l 91 593 l 32 593 l 32 647 q 265 989 124 779 l 300 984 q 272 862 284 910 q 258 743 260 814 l 377 743 l 377 597 l 256 597 l 254 308 q 263 250 254 257 q 363 186 273 243 z "},"u":{"ha":664,"x_min":28,"x_max":637,"o":"m 353 604 l 455 732 l 607 661 q 590 607 600 633 q 580 553 580 581 l 570 277 q 570 273 570 275 q 591 219 570 240 q 637 186 611 197 l 502 21 l 354 150 l 178 21 l 35 137 q 74 231 74 184 l 79 538 q 28 604 79 571 l 132 732 l 283 661 q 266 607 275 633 q 256 553 256 581 l 247 277 q 271 209 245 245 q 293 199 279 199 q 398 260 327 199 l 403 538 q 353 604 403 571 z "},"v":{"ha":636,"x_min":-12,"x_max":609,"o":"m 359 9 q 43 135 125 100 q 79 207 66 180 q 94 310 92 234 l 94 449 q 50 535 94 503 q -12 579 5 567 l 139 735 l 270 616 l 366 735 q 471 655 417 713 q 606 399 585 532 q 609 370 609 383 q 583 296 609 324 l 359 9 m 267 252 q 393 208 361 208 q 403 210 399 208 q 461 283 461 223 q 458 317 461 298 q 397 459 441 403 q 303 547 353 515 q 271 477 273 519 l 267 252 z "},"w":{"ha":875,"x_min":28,"x_max":844,"o":"m 272 620 q 374 732 367 724 l 532 616 l 621 735 q 717 655 668 713 q 841 399 821 532 q 843 369 843 383 q 820 296 843 324 l 614 9 q 493 77 600 14 q 387 142 386 140 l 273 21 l 37 176 q 81 278 79 233 l 84 536 q 64 571 84 557 q 28 597 44 585 l 127 732 l 272 620 m 354 201 q 367 241 364 224 q 370 310 370 258 l 370 449 q 359 498 370 475 q 335 524 343 515 q 300 551 327 533 q 256 491 257 522 l 248 302 q 288 242 247 269 q 354 201 329 215 m 530 252 q 646 208 616 208 q 654 210 650 208 q 708 286 708 223 q 705 317 708 300 q 648 459 689 403 q 562 547 608 515 q 533 477 534 518 l 530 252 z "},"x":{"ha":567,"x_min":6,"x_max":557,"o":"m 178 219 l 186 98 q 6 21 107 77 q 187 427 38 186 q 104 561 140 509 q 66 581 92 579 q 18 583 41 583 q 82 657 45 620 q 188 732 119 694 q 276 562 224 659 q 401 732 335 644 q 554 663 488 693 l 467 507 q 369 580 418 559 q 309 502 333 534 q 464 250 386 366 q 557 193 498 197 q 384 21 465 90 q 305 191 344 105 q 222 362 266 277 q 178 219 178 274 z "},"y":{"ha":662,"x_min":24,"x_max":652,"o":"m 315 23 l 239 58 l 75 108 q 116 231 116 159 l 121 538 q 71 604 121 572 l 174 732 l 336 625 q 316 585 329 597 q 300 545 302 573 l 269 227 q 297 162 267 206 q 371 116 326 118 q 446 538 441 278 q 397 604 447 570 l 499 732 l 652 625 q 637 588 645 597 q 612 504 629 580 q 539 296 595 429 q 416 47 483 163 q 280 -154 349 -68 q 155 -269 210 -240 l 24 -161 q 315 23 222 -89 z "},"z":{"ha":526,"x_min":28,"x_max":509,"o":"m 265 313 q 142 385 226 347 l 309 562 q 249 567 281 567 q 52 532 165 567 l 92 749 q 264 718 172 718 q 334 720 276 718 q 498 726 393 722 l 328 520 q 472 356 435 435 q 509 201 509 277 q 369 -115 506 33 q 160 -224 269 -224 q 74 -208 119 -224 q 28 -100 28 -191 q 60 90 28 9 q 265 313 110 214 m 166 -96 q 223 -117 195 -117 q 279 -98 252 -117 q 380 80 380 -25 q 344 212 380 142 q 298 216 327 216 q 223 189 270 216 q 149 126 176 162 q 109 23 123 91 q 106 1 106 12 q 166 -96 106 -53 z "},"{":{"ha":376,"x_min":11,"x_max":387,"o":"m 382 -33 q 362 -49 382 -47 q 340 -51 343 -51 l 321 -52 l 307 -52 q 195 -31 252 -52 q 143 9 162 -12 q 117 57 125 25 l 115 350 q 108 398 115 371 q 85 446 98 433 q 40 474 66 467 q 13 486 15 482 q 12 494 12 490 q 26 507 12 505 q 85 535 66 516 q 106 607 106 564 l 106 938 q 129 977 109 955 q 194 1024 161 1016 q 353 1036 267 1036 l 374 1036 q 387 1023 387 1036 l 387 1007 q 383 998 387 1002 q 370 993 379 994 q 348 990 361 993 q 320 983 334 987 q 271 964 297 977 q 250 931 256 947 l 250 612 q 179 490 238 545 q 232 435 210 464 q 251 359 251 404 l 251 64 q 269 26 260 36 q 298 1 279 14 q 314 -2 307 -1 q 328 -3 321 -3 l 347 -3 q 363 0 361 0 l 368 0 q 382 -14 382 0 l 382 -33 z "},"|":{"ha":160,"x_min":33,"x_max":116,"o":"m 116 0 l 33 0 l 33 1040 l 116 1040 l 116 0 z "},"}":{"ha":404,"x_min":7,"x_max":386,"o":"m 149 -46 q 116 -49 136 -49 l 64 -49 q 32 -47 50 -49 q 14 -33 14 -46 l 14 -13 q 19 -2 14 -7 q 31 1 24 2 q 52 -2 43 -2 l 64 -2 l 75 -1 q 77 0 77 -1 q 79 1 78 1 l 77 1 q 87 3 81 2 q 102 7 94 4 q 139 52 122 13 l 139 378 q 155 426 141 401 q 246 494 188 470 q 214 511 226 503 l 214 509 q 160 562 189 524 q 158 567 159 564 q 156 572 157 570 l 148 591 q 145 605 145 597 l 144 612 l 144 899 q 127 958 144 930 q 95 983 119 967 l 98 983 q 66 989 87 986 l 33 990 l 21 990 q 7 1004 7 990 l 7 1025 q 21 1038 7 1038 l 46 1038 l 74 1040 q 169 1032 134 1040 q 234 1009 203 1024 q 269 971 261 991 q 282 894 282 937 l 282 630 q 285 611 283 621 q 288 594 287 601 q 291 578 290 587 q 296 558 292 570 l 295 559 q 307 538 299 547 q 360 513 338 520 q 384 503 382 507 q 386 494 386 499 q 374 481 386 483 q 298 434 322 477 l 299 435 q 281 370 285 409 q 282 307 282 338 l 282 144 q 281 69 282 108 l 281 60 q 271 26 278 37 q 263 11 263 13 l 264 12 q 224 -27 250 -14 l 225 -27 q 149 -46 192 -46 z "},"~":{"ha":431,"x_min":30,"x_max":429,"o":"m 120 566 l 116 565 q 97 543 107 554 q 83 526 87 532 q 68 516 76 516 l 63 516 q 33 530 41 516 q 30 537 30 533 q 36 553 30 541 q 106 652 52 588 q 115 660 113 659 q 146 676 139 676 q 154 675 153 675 q 156 675 155 675 l 144 661 l 160 673 l 161 675 l 328 605 l 332 605 q 352 609 340 605 q 363 624 357 614 q 373 642 369 634 q 392 651 380 655 l 418 642 q 429 630 429 639 q 345 517 429 612 q 307 494 330 494 l 296 494 q 278 499 289 494 q 258 508 268 505 q 241 514 249 511 q 231 518 233 517 q 213 525 229 519 q 125 566 173 541 l 120 566 m 158 674 q 157 675 157 674 q 158 674 157 674 m 125 566 l 124 566 l 125 566 z "}," ":{"ha":226,"x_min":0,"x_max":0,"o":"z "},"¡":{"ha":308,"x_min":8,"x_max":296,"o":"m 148 462 l 8 601 l 148 741 l 288 601 l 148 462 m 296 -152 l 64 -349 l 85 330 l 208 439 q 220 85 208 249 q 296 -152 233 -79 z "},"¢":{"ha":593,"x_min":22,"x_max":564,"o":"m 361 234 q 474 314 441 258 q 503 294 488 304 q 532 274 517 284 q 424 177 475 218 q 361 126 374 136 l 361 0 l 279 0 l 279 56 q 240 20 258 37 q 23 355 23 163 q 84 540 23 449 q 279 739 144 631 l 279 762 l 362 762 l 362 689 q 564 574 427 650 l 429 454 q 361 492 388 476 l 361 234 m 279 543 q 256 555 267 549 q 232 560 244 560 q 207 547 220 560 q 165 450 165 504 q 275 249 165 356 q 279 245 277 247 l 279 543 z "},"£":{"ha":791,"x_min":14,"x_max":770,"o":"m 67 361 l 103 467 l 165 467 q 132 581 162 512 q 89 704 102 650 q 75 777 75 758 q 112 840 75 824 q 346 931 224 890 q 549 1007 467 973 q 659 1042 630 1042 q 705 1029 688 1042 q 761 932 743 1002 q 570 910 665 930 q 408 852 475 890 q 364 828 393 845 q 307 742 307 793 q 340 585 307 724 q 351 506 351 536 q 350 465 351 476 l 503 465 l 467 359 l 334 359 q 282 272 317 298 q 746 208 511 208 q 770 208 758 208 q 719 130 739 157 q 669 54 700 103 q 602 21 647 21 q 502 38 582 21 q 285 82 421 55 q 14 138 149 110 q 152 361 122 269 l 67 361 z "},"¤":{"ha":694,"x_min":17,"x_max":680,"o":"m 614 476 q 559 321 614 379 l 676 208 q 679 202 679 205 q 675 193 679 199 l 629 144 q 623 140 626 140 q 610 144 616 140 l 490 257 q 346 218 439 218 q 197 261 252 218 l 83 143 q 66 144 77 134 l 21 196 q 17 204 17 200 q 22 212 17 208 l 136 322 q 82 463 85 377 q 140 621 85 563 l 25 724 q 18 736 18 731 q 22 747 18 741 l 69 798 q 77 802 73 802 q 86 796 81 802 l 208 681 q 351 718 266 718 q 492 681 437 718 l 608 794 q 616 798 612 798 q 624 794 620 798 l 669 749 q 672 732 680 739 l 561 628 q 610 515 597 588 q 614 476 614 495 m 350 315 q 409 327 383 315 q 452 358 435 338 q 486 468 486 397 q 410 609 486 573 q 350 621 384 621 q 290 608 316 621 q 245 575 263 596 q 211 468 211 532 q 248 361 211 405 q 350 315 288 315 z "},"¥":{"ha":736,"x_min":46,"x_max":709,"o":"m 86 561 l 243 561 l 109 880 l 46 880 l 46 926 l 335 926 l 335 880 l 276 880 l 431 506 l 534 755 q 561 833 561 819 q 537 877 561 870 q 486 880 526 880 l 486 926 l 709 926 l 709 880 q 661 876 668 878 q 617 826 642 871 q 589 768 593 781 l 503 561 l 669 561 l 669 503 l 479 503 l 452 438 l 452 351 l 669 351 l 669 292 l 452 292 l 452 46 l 534 46 l 534 0 l 225 0 l 225 46 l 308 46 l 308 292 l 86 292 l 86 351 l 308 351 l 308 408 l 268 503 l 86 503 l 86 561 z "},"¦":{"ha":694,"x_min":310,"x_max":384,"o":"m 310 926 l 384 926 l 384 470 l 310 470 l 310 926 m 310 213 l 384 213 l 384 -231 l 310 -231 l 310 213 z "},"§":{"ha":660,"x_min":41,"x_max":629,"o":"m 419 759 l 427 818 q 405 858 427 842 q 335 875 383 875 q 252 847 288 875 q 216 791 216 819 q 245 713 216 745 q 378 623 271 682 q 629 351 629 488 q 595 252 629 298 q 478 156 561 205 q 562 67 532 112 q 585 -18 585 29 q 554 -108 585 -66 q 465 -174 524 -150 q 311 -198 405 -198 q 158 -154 218 -198 q 98 -52 98 -109 q 121 2 98 -19 q 178 24 144 24 q 236 4 212 24 q 260 -35 260 -16 q 251 -76 260 -54 q 242 -113 242 -98 q 264 -141 242 -127 q 336 -155 286 -155 q 422 -130 387 -155 q 457 -65 457 -104 q 435 1 457 -27 q 289 96 403 35 q 108 227 175 157 q 41 352 41 296 q 75 456 41 408 q 191 564 109 504 q 85 721 85 640 q 157 860 85 802 q 337 917 229 917 q 511 870 446 917 q 577 769 577 823 q 554 715 577 736 q 496 694 530 694 q 441 713 463 694 q 419 759 419 732 m 229 536 q 162 431 162 487 q 182 370 162 401 q 252 305 203 340 l 444 181 q 492 232 482 214 q 511 291 511 266 q 418 414 511 350 l 229 536 z "},"¨":{"ha":598,"x_min":176,"x_max":580,"o":"m 369 750 l 416 967 q 580 907 507 949 q 369 750 482 814 m 176 730 l 207 980 q 360 922 293 959 q 176 730 279 818 z "},"©":{"ha":889,"x_min":108,"x_max":781,"o":"m 420 661 q 330 512 330 661 q 340 416 330 463 q 362 348 351 370 q 389 307 374 325 q 460 271 420 271 q 573 359 540 271 l 574 366 l 603 366 l 618 366 l 612 352 q 537 251 586 288 q 439 214 489 214 q 353 233 389 214 q 289 286 316 252 q 231 458 231 359 q 277 608 231 529 q 427 701 333 701 q 526 667 477 701 q 547 661 536 661 q 583 691 568 661 l 586 695 l 627 695 l 566 576 l 562 570 l 534 570 q 462 656 512 642 q 420 661 445 661 m 444 801 q 576 774 515 801 q 684 701 637 747 q 781 458 781 602 q 684 216 781 315 q 445 116 585 116 q 205 216 304 116 q 108 458 108 315 q 205 699 108 600 q 444 801 304 801 m 661 678 q 445 770 570 770 q 227 680 316 770 q 137 458 137 589 q 224 240 137 333 q 445 146 313 146 q 661 236 572 146 q 751 458 751 329 q 726 580 751 522 q 661 678 702 637 z "},"ª":{"ha":413,"x_min":16,"x_max":398,"o":"m 16 892 l 191 1034 l 389 942 q 353 873 354 911 l 352 725 q 368 691 352 710 q 398 660 384 671 l 307 566 l 238 637 q 188 601 213 618 q 142 566 162 584 q 16 643 75 591 q 36 705 33 664 l 35 840 q 35 843 35 842 q 16 892 35 869 m 170 927 q 144 857 144 888 l 144 748 q 156 700 144 714 q 175 673 167 685 q 203 656 184 662 l 240 683 l 240 889 l 170 927 z "},"«":{"ha":838,"x_min":26,"x_max":786,"o":"m 26 390 l 340 721 l 453 650 l 249 393 l 453 131 l 340 60 l 26 390 m 359 390 l 673 721 l 786 650 l 582 393 l 786 131 l 673 60 l 359 390 z "},"¬":{"ha":468,"x_min":65,"x_max":403,"o":"m 65 475 l 403 475 l 403 321 l 345 321 l 345 408 l 65 408 l 65 475 z "},"­":{"ha":468,"x_min":65,"x_max":401,"o":"m 65 475 l 401 475 l 401 408 l 65 408 l 65 475 z "},"®":{"ha":889,"x_min":72,"x_max":786,"o":"m 429 804 q 568 778 503 804 q 682 705 634 751 q 786 469 786 608 q 682 231 786 330 q 429 132 580 132 q 176 231 280 132 q 72 469 72 328 q 175 704 72 606 q 429 804 280 804 m 376 458 l 458 458 q 524 539 524 466 q 523 551 524 545 q 520 578 522 557 q 512 618 518 600 q 492 646 505 637 q 414 659 475 659 l 376 659 l 376 458 m 613 313 q 621 347 621 326 l 621 357 l 651 355 l 661 354 l 661 345 q 641 257 661 289 q 575 224 621 224 q 499 251 528 224 q 464 309 469 277 q 455 358 458 340 q 446 390 452 376 q 408 420 434 420 l 374 420 l 374 282 q 387 273 374 277 q 404 268 399 268 l 415 268 l 415 230 l 231 230 l 231 268 l 241 268 q 260 273 248 268 q 272 282 272 277 l 272 651 q 261 655 272 652 q 241 659 251 659 l 231 659 l 231 696 l 482 696 q 608 629 575 691 q 622 567 622 604 q 511 422 622 442 q 539 388 530 408 q 554 350 547 368 q 569 318 560 332 q 592 305 577 305 q 613 313 606 305 m 659 684 q 429 774 563 774 q 198 684 292 774 q 102 469 102 594 q 196 254 102 346 q 429 162 289 162 q 658 250 564 162 q 755 466 755 341 q 659 684 755 590 z "},"¯":{"ha":468,"x_min":60,"x_max":395,"o":"m 60 958 l 395 958 l 395 890 l 60 890 l 60 958 z "},"°":{"ha":463,"x_min":18,"x_max":449,"o":"m 186 1025 q 228 1043 205 1043 q 279 1019 251 1043 q 449 726 449 869 q 275 413 449 571 q 220 388 247 388 q 168 413 193 388 q 19 720 19 566 q 186 1025 19 873 m 127 887 q 98 819 98 867 q 149 678 98 770 q 273 555 216 555 q 304 565 289 555 q 336 634 336 585 q 286 774 336 683 q 160 898 218 898 q 127 887 144 898 z "},"±":{"ha":694,"x_min":72,"x_max":624,"o":"m 292 211 l 292 404 l 72 404 l 72 510 l 292 510 l 292 690 l 406 690 l 406 510 l 624 510 l 624 404 l 406 404 l 406 211 l 292 211 m 624 113 l 624 7 l 72 7 l 72 113 l 624 113 z "},"²":{"ha":490,"x_min":9,"x_max":453,"o":"m 453 625 q 418 427 446 583 q 272 441 323 441 q 9 427 126 441 q 222 651 150 557 q 294 809 294 745 q 193 932 294 878 q 169 940 179 940 q 152 935 159 940 q 148 896 136 924 q 186 851 160 869 q 237 819 212 833 q 191 754 214 786 q 146 692 168 723 q 42 839 42 783 q 118 975 42 895 q 244 1054 194 1054 q 367 988 296 1054 q 437 857 437 922 q 413 785 437 821 q 235 576 345 690 l 316 575 q 357 576 336 575 q 436 637 413 576 q 453 625 441 633 z "},"³":{"ha":460,"x_min":9,"x_max":452,"o":"m 320 866 q 439 659 439 760 q 351 504 439 574 q 187 434 263 434 q 149 439 168 434 q 9 571 60 463 q 68 636 39 604 q 128 701 98 668 q 198 525 148 572 q 247 504 220 504 q 306 538 273 504 q 336 600 336 570 q 312 658 336 630 q 151 761 260 718 q 280 919 206 827 q 191 926 226 926 q 134 922 156 926 q 79 868 79 915 l 50 882 q 78 989 65 939 q 107 1096 92 1038 q 268 1038 178 1041 q 452 1033 359 1035 q 320 866 331 880 z "},"´":{"ha":963,"x_min":779,"x_max":969,"o":"m 779 916 q 779 960 779 927 q 813 1179 779 1068 l 969 1154 l 779 916 z "},"µ":{"ha":667,"x_min":10,"x_max":640,"o":"m 31 604 l 133 732 l 134 732 l 134 732 l 286 661 l 258 559 l 258 553 l 250 277 q 274 209 248 245 q 296 199 282 199 q 401 260 330 199 l 406 538 q 355 604 406 571 l 458 732 l 610 661 q 592 607 602 633 q 583 553 583 581 l 573 277 q 573 273 573 275 q 593 219 573 240 q 640 186 614 197 l 505 21 l 357 150 l 192 29 q 82 -268 155 -89 q 10 -235 60 -247 q 65 116 54 -75 q 79 420 77 308 l 81 538 q 31 604 81 571 z "},"¶":{"ha":1068,"x_min":28,"x_max":1046,"o":"m 880 172 q 897 155 880 155 q 1006 168 972 159 q 1034 162 1021 171 q 1046 136 1046 152 l 1046 126 q 1020 94 1046 99 q 890 81 981 86 q 874 59 876 81 q 872 12 873 37 q 870 -33 871 -13 q 836 -63 867 -63 q 804 -32 805 -63 q 800 62 802 -3 q 778 78 798 79 q 732 77 758 77 l 684 77 q 667 55 668 77 q 665 9 666 33 q 663 -33 664 -14 q 629 -63 661 -63 q 597 -32 597 -63 q 593 62 595 3 q 576 77 591 77 q 523 77 549 77 q 173 203 317 77 q 28 506 28 329 q 173 809 28 684 q 523 935 317 935 q 539 935 532 935 q 556 953 556 935 q 551 999 553 986 q 562 1021 550 1011 q 586 1031 573 1031 l 633 1026 l 676 1031 q 699 1021 688 1031 q 708 992 710 1012 q 706 960 707 972 q 710 942 705 947 q 725 936 715 936 l 747 936 q 758 941 753 936 q 762 956 763 946 q 761 976 762 965 q 759 999 760 986 q 769 1022 758 1012 q 793 1031 780 1031 l 841 1026 l 884 1031 q 905 1023 895 1031 q 916 994 917 1012 q 912 953 914 975 q 927 930 911 930 q 991 922 964 926 q 1018 889 1018 917 l 1018 887 q 1005 861 1018 871 q 973 856 991 851 q 912 859 922 868 q 907 848 907 854 q 892 516 899 705 q 880 172 886 326 m 700 855 q 672 168 697 802 q 677 156 672 161 q 696 151 682 151 l 732 151 q 790 156 785 151 q 795 168 795 161 q 783 518 789 324 q 769 855 777 711 q 755 870 768 869 q 734 871 743 871 l 716 871 q 700 855 700 869 m 541 859 q 444 763 481 839 q 406 499 406 686 q 453 239 406 313 q 569 155 499 166 q 572 154 571 154 l 583 158 q 588 170 588 162 l 575 513 q 562 844 569 702 q 555 857 562 851 q 545 860 551 860 l 541 859 z "},"·":{"ha":344,"x_min":9,"x_max":335,"o":"m 172 789 l 335 627 l 172 464 l 9 627 l 172 789 z "},"¸":{"ha":694,"x_min":218,"x_max":541,"o":"m 376 0 l 422 0 l 355 -104 q 431 -94 392 -94 q 505 -120 469 -94 q 541 -190 541 -146 q 480 -279 541 -252 q 384 -298 439 -298 q 218 -273 275 -298 l 232 -243 q 311 -256 270 -256 q 402 -193 402 -256 q 386 -156 402 -169 q 347 -144 369 -144 q 309 -153 326 -144 l 288 -133 l 376 0 z "},"¹":{"ha":330,"x_min":1,"x_max":313,"o":"m 64 439 q 178 755 178 450 q 171 905 178 824 l 7 906 l 1 943 q 313 1082 174 977 l 307 464 q 90 402 210 460 l 64 439 z "},"º":{"ha":387,"x_min":13,"x_max":370,"o":"m 36 907 q 209 1034 140 977 q 279 981 243 1019 q 368 811 355 899 q 370 782 370 802 q 353 744 370 763 l 205 555 l 13 649 q 43 759 43 712 l 43 863 q 36 907 41 895 m 156 923 l 155 732 q 186 699 159 711 q 222 686 213 686 q 233 687 231 686 q 273 736 273 696 q 271 758 273 746 q 156 923 243 890 z "},"»":{"ha":838,"x_min":52,"x_max":811,"o":"m 497 60 l 385 131 l 589 393 l 385 650 l 497 721 l 811 390 l 497 60 m 164 60 l 52 131 l 256 393 l 52 650 l 164 721 l 478 390 l 164 60 z "},"¼":{"ha":958,"x_min":31,"x_max":913,"o":"m 94 439 q 208 755 208 450 q 201 905 208 824 l 37 906 l 31 943 q 343 1082 204 977 l 337 464 q 120 402 239 460 l 94 439 m 715 291 q 715 323 715 300 q 709 418 715 347 l 848 572 q 834 298 836 413 q 913 310 871 302 l 909 174 l 836 176 q 848 43 838 94 q 648 2 771 35 q 705 178 689 81 l 486 181 l 688 656 l 862 661 q 604 294 696 490 q 677 290 650 290 q 715 291 703 290 m 174 -47 q 161 -33 161 -47 q 162 -26 161 -30 l 670 960 q 682 966 673 966 l 730 966 q 745 954 745 966 q 743 947 745 951 l 237 -40 q 226 -47 234 -47 l 174 -47 z "},"½":{"ha":1041,"x_min":35,"x_max":950,"o":"m 98 439 q 212 755 212 450 q 205 905 212 824 l 41 906 l 35 943 q 347 1082 208 977 l 341 464 q 124 402 243 460 l 98 439 m 174 -47 q 161 -33 161 -47 q 162 -26 161 -30 l 670 960 q 682 966 673 966 l 730 966 q 743 960 739 966 q 743 947 747 954 l 237 -40 q 226 -47 234 -47 l 174 -47 m 950 197 q 916 -1 943 155 q 769 14 821 14 q 506 -1 623 14 q 719 223 647 130 q 791 381 791 317 q 690 505 791 450 q 666 512 676 512 q 649 507 656 512 q 645 468 633 496 q 683 423 657 441 q 734 391 709 405 q 688 327 711 358 q 643 264 665 295 q 539 411 539 355 q 615 547 539 467 q 741 626 691 626 q 864 560 793 626 q 935 429 935 494 q 910 358 935 393 q 732 148 842 262 l 813 147 q 854 148 833 147 q 933 210 910 149 q 950 197 939 205 z "},"¾":{"ha":981,"x_min":50,"x_max":930,"o":"m 733 291 q 733 323 733 300 q 727 418 733 347 l 865 572 q 852 298 854 413 q 930 310 889 302 l 927 174 l 853 176 q 865 43 856 94 q 665 2 789 35 q 723 178 707 81 l 504 181 l 706 656 l 880 661 q 621 294 713 490 q 694 290 668 290 q 733 291 721 290 m 770 966 q 785 954 785 966 q 783 947 785 951 l 277 -40 q 267 -47 275 -47 l 215 -47 q 203 -41 207 -47 q 203 -26 199 -34 l 711 960 q 722 966 713 966 l 770 966 m 361 866 q 480 659 480 760 q 392 504 480 574 q 228 434 304 434 q 190 439 209 434 q 50 571 100 463 q 109 636 79 604 q 169 701 139 668 q 239 525 189 572 q 287 504 260 504 q 347 538 314 504 q 377 600 377 570 q 353 658 377 630 q 191 761 301 718 q 321 919 247 827 q 232 926 267 926 q 175 922 197 926 q 120 868 119 915 l 90 882 q 119 989 106 939 q 148 1096 132 1038 q 309 1038 218 1041 q 492 1033 399 1035 q 361 866 372 880 z "},"¿":{"ha":370,"x_min":27,"x_max":359,"o":"m 180 461 l 40 600 l 180 740 l 319 600 l 180 461 m 50 281 l 197 441 q 337 310 279 406 q 165 -46 165 66 q 170 -80 165 -65 q 359 -195 203 -186 l 167 -387 q 31 -214 54 -324 q 27 -175 27 -196 q 125 95 27 -71 q 170 205 170 173 q 157 248 170 237 q 50 281 119 281 z "},"À":{"ha":963,"x_min":18,"x_max":949,"o":"m 153 713 q 383 869 278 776 q 587 1059 488 963 q 778 895 710 939 q 939 817 845 850 q 901 774 923 793 q 864 732 878 756 q 859 696 859 720 l 859 659 l 864 296 q 880 241 865 252 l 949 184 l 829 21 l 674 153 q 688 431 688 262 l 435 431 q 288 24 410 191 q 71 -237 167 -142 q 18 -203 36 -213 q 137 -15 98 -121 q 199 191 176 91 q 222 360 222 292 q 215 484 222 428 q 153 713 196 627 m 275 1139 q 309 899 309 1028 q 309 876 309 887 l 119 1114 l 275 1139 m 686 591 q 684 679 684 648 q 685 732 684 709 q 519 823 612 784 q 505 824 512 824 q 448 773 456 824 q 439 679 439 732 q 441 591 439 625 l 686 591 z "},"Á":{"ha":953,"x_min":11,"x_max":949,"o":"m 473 831 q 338 849 404 849 q 47 741 178 849 q 42 776 47 747 q 39 812 37 805 q 427 1041 217 958 q 930 817 701 960 q 893 774 916 793 q 856 732 871 756 q 851 696 851 720 l 851 659 l 856 296 q 872 241 858 252 l 941 184 l 821 21 l 666 153 q 681 431 681 259 l 427 431 q 280 24 401 191 q 62 -237 159 -142 q 11 -203 34 -216 q 129 -15 90 -121 q 195 209 168 91 q 223 439 223 326 q 174 651 223 552 q 473 831 338 733 m 678 591 q 677 690 677 671 q 677 732 677 709 q 536 810 610 780 q 463 728 488 774 q 433 591 438 682 l 678 591 m 759 953 q 759 997 759 964 q 793 1216 759 1105 l 949 1191 l 759 953 z "},"Â":{"ha":953,"x_min":11,"x_max":941,"o":"m 473 831 q 338 849 404 849 q 47 741 178 849 q 42 776 47 747 q 39 812 37 805 q 427 1041 217 958 q 930 817 701 960 q 893 774 916 793 q 856 732 871 756 q 851 696 851 720 l 851 659 l 856 296 q 872 241 858 252 l 941 184 l 821 21 l 666 153 q 681 431 681 259 l 427 431 q 280 24 401 191 q 62 -237 159 -142 q 11 -203 34 -216 q 129 -15 90 -121 q 195 209 168 91 q 223 439 223 326 q 174 651 223 552 q 473 831 338 733 m 678 591 q 677 690 677 671 q 677 732 677 709 q 536 810 610 780 q 463 728 488 774 q 433 591 438 682 l 678 591 m 307 1036 q 290 1044 290 1036 q 292 1048 290 1046 l 439 1194 q 452 1197 442 1197 l 532 1197 q 547 1194 541 1197 l 690 1048 q 692 1044 692 1046 q 677 1036 692 1036 l 641 1036 q 630 1038 632 1036 l 490 1117 q 350 1037 357 1038 q 341 1036 343 1036 l 307 1036 z "},"Ã":{"ha":953,"x_min":18,"x_max":949,"o":"m 776 1249 l 936 1104 q 806 962 901 1021 q 484 1127 570 1127 q 454 1120 466 1127 q 382 922 389 1078 l 189 1112 q 389 1246 262 1246 q 589 1173 478 1246 q 699 1128 667 1128 q 743 1142 731 1128 q 776 1249 776 1181 m 153 713 q 383 869 278 776 q 587 1059 488 963 q 778 895 710 939 q 939 817 845 850 q 901 774 923 793 q 864 732 878 756 q 859 696 859 720 l 859 659 l 864 296 q 880 241 865 252 l 949 184 l 829 21 l 674 153 q 688 431 688 262 l 435 431 q 288 24 410 191 q 71 -237 167 -142 q 18 -203 36 -213 q 137 -15 98 -121 q 199 191 176 91 q 222 360 222 292 q 215 484 222 428 q 153 713 196 627 m 686 591 q 684 679 684 648 q 685 732 684 709 q 519 823 612 784 q 505 824 512 824 q 448 773 456 824 q 439 679 439 732 q 441 591 439 625 l 686 591 z "},"Ä":{"ha":963,"x_min":18,"x_max":949,"o":"m 153 713 q 383 869 278 776 q 587 1059 488 963 q 778 895 710 939 q 939 817 845 850 q 901 774 923 793 q 864 732 878 756 q 859 696 859 720 l 859 659 l 864 296 q 880 241 865 252 l 949 184 l 829 21 l 674 153 q 688 431 688 262 l 435 431 q 288 24 410 191 q 71 -237 167 -142 q 18 -203 36 -213 q 137 -15 98 -121 q 199 191 176 91 q 222 360 222 292 q 215 484 222 428 q 153 713 196 627 m 238 815 l 298 1046 l 490 1010 q 238 815 369 893 m 929 858 q 705 1000 798 917 l 884 1041 l 929 858 m 686 591 q 684 679 684 648 q 685 732 684 709 q 519 823 612 784 q 505 824 512 824 q 448 773 456 824 q 439 679 439 732 q 441 591 439 625 l 686 591 z "},"Å":{"ha":953,"x_min":11,"x_max":941,"o":"m 666 153 q 679 296 679 243 q 671 349 679 349 q 667 347 669 349 l 414 347 q 280 24 401 191 q 62 -237 159 -142 q 11 -203 34 -216 q 129 -15 90 -121 q 191 185 168 91 q 214 343 214 279 q 160 566 214 457 q 459 747 325 648 q 325 764 390 764 q 33 656 165 764 q 29 691 34 663 q 25 727 24 720 q 336 924 172 848 q 300 1030 300 977 q 471 1259 300 1146 q 514 1272 491 1272 q 566 1254 538 1272 q 741 1038 741 1143 q 647 872 741 956 q 737 832 665 864 q 917 732 808 800 q 880 690 902 708 q 842 648 857 671 q 838 611 838 635 l 838 574 l 856 296 q 872 241 858 252 l 941 184 l 821 21 l 666 153 m 665 506 q 663 605 663 587 q 664 648 663 624 q 523 726 597 695 q 450 643 475 690 q 420 506 425 597 l 665 506 m 412 1157 q 381 1107 381 1143 q 433 1004 381 1072 q 561 913 503 913 q 593 920 577 913 q 624 971 624 935 q 574 1074 624 1006 q 445 1165 504 1165 q 412 1157 428 1165 z "},"Æ":{"ha":1464,"x_min":11,"x_max":1470,"o":"m 1470 912 l 1354 778 q 1147 865 1249 851 q 1139 732 1142 807 l 1420 732 l 1420 572 l 1143 572 q 1159 393 1145 495 l 1003 336 q 1359 220 1131 220 q 1412 222 1385 220 l 1264 21 q 821 224 976 52 q 707 429 745 308 l 427 431 q 280 24 401 191 q 62 -237 159 -142 q 11 -203 34 -216 q 129 -15 90 -121 q 195 209 168 91 q 223 439 223 326 q 174 651 223 552 q 473 831 338 733 q 338 849 404 849 q 47 741 178 849 q 42 776 47 747 q 39 812 37 805 q 427 1041 217 958 q 871 852 665 970 q 1192 1041 1029 946 q 1470 912 1287 975 m 433 591 l 673 591 q 665 732 665 657 q 671 736 669 734 q 536 810 607 781 q 463 728 488 774 q 433 591 438 682 m 950 391 l 1000 408 q 980 665 980 557 q 983 839 980 774 q 917 791 943 819 q 881 739 892 764 q 869 667 869 713 q 871 597 869 620 q 950 391 876 490 z "},"Ç":{"ha":732,"x_min":21,"x_max":744,"o":"m 684 737 q 527 829 607 803 q 522 668 522 765 q 543 444 522 571 l 329 349 q 473 264 383 292 q 580 248 523 248 q 698 258 637 248 l 580 10 q 434 61 500 36 l 389 -9 q 465 1 426 1 q 539 -25 503 1 q 574 -94 574 -51 q 514 -183 574 -156 q 418 -202 473 -202 q 252 -178 309 -202 l 266 -147 q 345 -160 304 -160 q 436 -98 436 -160 q 419 -61 436 -73 q 381 -48 403 -48 q 342 -57 359 -48 l 322 -37 l 397 76 q 268 135 323 106 q 97 278 153 196 q 28 476 40 360 q 21 625 21 549 q 24 766 21 701 l 581 1041 l 744 923 l 684 737 m 337 822 q 225 625 225 768 q 289 398 225 496 q 342 511 332 427 q 347 615 347 545 q 337 822 347 685 z "},"È":{"ha":824,"x_min":17,"x_max":821,"o":"m 821 912 l 706 778 q 499 865 600 851 q 491 732 493 807 l 771 732 l 771 572 l 494 572 q 510 393 496 495 l 354 336 q 711 220 482 220 q 764 222 736 220 l 615 21 q 172 224 327 52 q 17 732 17 397 l 543 1041 q 821 912 639 975 m 302 391 l 352 408 q 332 665 332 557 q 335 839 332 774 q 269 791 294 819 q 232 739 243 764 q 221 667 221 713 q 222 597 221 621 q 302 391 227 490 m 248 1200 q 281 959 281 1088 q 281 937 281 947 l 92 1175 l 248 1200 z "},"É":{"ha":824,"x_min":17,"x_max":865,"o":"m 821 912 l 706 778 q 499 865 600 851 q 491 732 493 807 l 771 732 l 771 572 l 494 572 q 510 393 496 495 l 354 336 q 711 220 482 220 q 764 222 736 220 l 615 21 q 172 224 327 52 q 17 732 17 397 l 543 1041 q 821 912 639 975 m 302 391 l 352 408 q 332 665 332 557 q 335 839 332 774 q 269 791 294 819 q 232 739 243 764 q 221 667 221 713 q 222 597 221 621 q 302 391 227 490 m 675 1021 q 675 1065 675 1032 q 709 1284 675 1173 l 865 1259 l 675 1021 z "},"Ê":{"ha":824,"x_min":17,"x_max":821,"o":"m 821 912 l 706 778 q 499 865 600 851 q 491 732 493 807 l 771 732 l 771 572 l 494 572 q 510 393 496 495 l 354 336 q 711 220 482 220 q 764 222 736 220 l 615 21 q 172 224 327 52 q 17 732 17 397 l 543 1041 q 821 912 639 975 m 302 391 l 352 408 q 332 665 332 557 q 335 839 332 774 q 269 791 294 819 q 232 739 243 764 q 221 667 221 713 q 222 597 221 621 q 302 391 227 490 m 353 1044 q 336 1051 336 1044 q 339 1056 336 1053 l 486 1201 q 498 1204 489 1204 l 578 1204 q 593 1201 588 1204 l 736 1056 q 739 1051 739 1053 q 724 1044 739 1044 l 688 1044 q 677 1046 679 1044 l 537 1124 q 397 1044 404 1045 q 388 1044 390 1044 l 353 1044 z "},"Ë":{"ha":810,"x_min":17,"x_max":859,"o":"m 859 1109 q 850 939 850 1025 q 725 976 795 948 q 614 1061 654 1004 l 859 1109 m 177 885 q 153 1058 153 1010 q 158 1137 153 1106 l 448 1055 q 315 969 383 1015 q 177 885 246 924 m 821 912 l 706 778 q 499 865 600 851 q 491 732 493 807 l 771 732 l 771 572 l 494 572 q 510 393 496 495 l 354 336 q 711 220 482 220 q 764 222 736 220 l 615 21 q 172 224 327 52 q 17 732 17 397 l 543 1041 q 821 912 639 975 m 302 391 l 352 408 q 332 665 332 557 q 335 839 332 774 q 269 791 294 819 q 232 739 243 764 q 221 667 221 713 q 222 597 221 621 q 302 391 227 490 z "},"Ì":{"ha":720,"x_min":19,"x_max":699,"o":"m 699 1028 q 614 876 635 917 q 642 595 629 706 q 654 444 654 484 q 610 265 654 330 q 483 157 547 221 q 352 21 418 92 q 76 152 233 77 q 19 234 19 175 q 25 282 19 250 q 39 363 31 315 q 56 459 47 411 q 214 305 130 362 q 387 213 298 248 q 417 208 399 208 q 455 232 435 208 q 475 295 475 256 q 469 395 475 335 q 447 547 463 454 q 418 732 431 639 q 530 839 471 775 q 418 834 484 834 q 287 847 352 834 q 182 861 221 861 q 45 825 104 861 q 142 1059 77 950 q 593 1027 341 1027 q 699 1028 644 1027 m 411 1325 q 445 1084 445 1214 q 445 1062 445 1073 l 255 1300 l 411 1325 z "},"Í":{"ha":720,"x_min":19,"x_max":699,"o":"m 699 1028 q 614 876 635 917 q 642 595 629 706 q 654 444 654 484 q 610 265 654 330 q 483 157 547 221 q 352 21 418 92 q 76 152 233 77 q 19 234 19 175 q 25 282 19 250 q 39 363 31 315 q 56 459 47 411 q 214 305 130 362 q 387 213 298 248 q 417 208 399 208 q 455 232 435 208 q 475 295 475 256 q 469 395 475 335 q 447 547 463 454 q 418 732 431 639 q 530 839 471 775 q 418 834 484 834 q 287 847 352 834 q 182 861 221 861 q 45 825 104 861 q 142 1059 77 950 q 593 1027 341 1027 q 699 1028 644 1027 m 379 1062 q 379 1106 379 1073 q 413 1325 379 1214 l 569 1300 l 379 1062 z "},"Î":{"ha":720,"x_min":19,"x_max":699,"o":"m 699 1028 q 614 876 635 917 q 642 595 629 706 q 654 444 654 484 q 610 265 654 330 q 483 157 547 221 q 352 21 418 92 q 76 152 233 77 q 19 234 19 175 q 25 282 19 250 q 39 363 31 315 q 56 459 47 411 q 214 305 130 362 q 387 213 298 248 q 417 208 399 208 q 455 232 435 208 q 475 295 475 256 q 469 395 475 335 q 447 547 463 454 q 418 732 431 639 q 530 839 471 775 q 418 834 484 834 q 287 847 352 834 q 182 861 221 861 q 45 825 104 861 q 142 1059 77 950 q 593 1027 341 1027 q 699 1028 644 1027 m 208 1093 q 191 1100 191 1093 q 194 1105 191 1102 l 340 1250 q 353 1253 344 1253 l 433 1253 q 448 1250 443 1253 l 591 1105 q 594 1100 594 1102 q 578 1093 594 1093 l 543 1093 q 532 1095 534 1093 l 392 1173 q 252 1093 259 1094 q 243 1093 245 1093 l 208 1093 z "},"Ï":{"ha":720,"x_min":19,"x_max":699,"o":"m 699 1028 q 614 876 635 917 q 642 595 629 706 q 654 444 654 484 q 610 265 654 330 q 483 157 547 221 q 352 21 418 92 q 76 152 233 77 q 19 234 19 175 q 25 282 19 250 q 39 363 31 315 q 56 459 47 411 q 214 305 130 362 q 387 213 298 248 q 417 208 399 208 q 455 232 435 208 q 475 295 475 256 q 469 395 475 335 q 447 547 463 454 q 418 732 431 639 q 530 839 471 775 q 418 834 484 834 q 287 847 352 834 q 182 861 221 861 q 45 825 104 861 q 142 1059 77 950 q 593 1027 341 1027 q 699 1028 644 1027 m 484 917 l 530 1069 q 689 1027 618 1056 q 484 917 594 962 m 295 903 l 326 1078 q 475 1037 410 1063 q 295 903 396 964 z "},"Ð":{"ha":878,"x_min":-10,"x_max":861,"o":"m 79 608 q 134 554 85 554 q 137 554 136 554 l 154 555 l 153 568 q 81 735 143 674 q 386 800 240 743 q 32 874 238 874 q 10 874 21 874 l 233 1041 q 697 819 546 993 q 861 362 849 646 l 461 21 q 3 183 268 119 l 152 340 q 157 445 156 394 q -10 391 13 435 q 35 500 20 468 q 79 608 49 532 m 401 360 q 374 361 387 361 q 243 334 305 361 q 496 215 406 215 q 559 236 534 215 q 635 422 635 300 q 595 593 635 511 q 550 531 568 548 q 495 452 532 514 q 378 452 439 452 q 401 360 383 412 m 418 783 q 385 708 397 744 q 372 640 372 673 q 373 561 372 585 l 492 565 q 591 602 541 566 q 418 783 532 713 z "},"Ñ":{"ha":932,"x_min":25,"x_max":970,"o":"m 810 1235 l 970 1090 q 841 948 936 1007 q 545 1149 619 1149 q 530 1146 536 1149 q 448 984 466 1120 q 362 1059 410 1011 q 266 1154 314 1107 q 430 1286 328 1267 q 458 1288 444 1288 q 643 1192 547 1288 q 754 1118 717 1118 q 777 1128 768 1118 q 810 1235 810 1166 m 452 224 l 338 21 q 25 181 142 120 q 193 378 176 321 q 195 402 195 389 q 139 591 195 467 q 64 761 83 715 q 45 833 45 808 q 54 876 45 858 q 143 953 73 918 q 357 1041 214 988 q 387 970 378 994 q 287 891 292 939 q 286 878 286 885 q 317 770 286 834 q 448 912 379 837 q 570 1041 517 987 q 734 953 651 997 q 908 878 818 909 q 793 625 798 804 l 784 373 q 784 359 784 366 q 863 224 784 249 q 755 21 807 123 q 619 133 657 57 q 581 347 581 210 q 581 361 581 353 l 583 532 q 605 640 583 593 q 663 732 627 686 q 524 785 592 785 q 355 700 448 785 l 356 698 q 407 541 407 603 q 403 509 407 524 q 274 296 385 440 q 452 224 338 250 z "},"Ò":{"ha":1103,"x_min":23,"x_max":1081,"o":"m 635 1041 q 628 892 629 954 q 693 957 661 924 q 758 1019 726 991 q 1081 684 855 820 q 1023 397 1080 522 q 886 189 966 273 q 719 63 806 105 q 570 20 631 20 q 169 204 282 20 q 23 632 55 387 q 279 900 132 790 q 635 1041 425 1010 m 627 805 q 702 336 630 495 q 479 197 532 295 q 621 157 546 157 q 635 157 628 157 q 811 219 742 161 q 892 395 892 287 q 836 582 892 475 q 627 805 780 688 m 418 243 q 444 430 444 315 q 443 500 444 441 q 439 669 441 559 q 423 885 438 778 q 274 610 274 798 q 275 578 274 595 q 418 243 288 366 m 677 1286 q 711 1045 711 1175 q 711 1023 711 1034 l 521 1261 l 677 1286 z "},"Ó":{"ha":1103,"x_min":23,"x_max":1081,"o":"m 635 1041 q 628 892 629 954 q 693 957 661 924 q 758 1019 726 991 q 1081 684 855 820 q 1023 397 1080 522 q 886 189 966 273 q 719 63 806 105 q 570 20 631 20 q 169 204 282 20 q 23 632 55 387 q 279 900 132 790 q 635 1041 425 1010 m 627 805 q 702 336 630 495 q 479 197 532 295 q 621 157 546 157 q 635 157 628 157 q 811 219 742 161 q 892 395 892 287 q 836 582 892 475 q 627 805 780 688 m 418 243 q 444 430 444 315 q 443 500 444 441 q 439 669 441 559 q 423 885 438 778 q 274 610 274 798 q 275 578 274 595 q 418 243 288 366 m 684 1011 q 684 1055 684 1022 q 718 1274 684 1163 l 873 1249 l 684 1011 z "},"Ô":{"ha":1103,"x_min":23,"x_max":1081,"o":"m 635 1041 q 628 892 629 954 q 693 957 661 924 q 758 1019 726 991 q 1081 684 855 820 q 1023 397 1080 522 q 886 189 966 273 q 719 63 806 105 q 570 20 631 20 q 169 204 282 20 q 23 632 55 387 q 279 900 132 790 q 635 1041 425 1010 m 627 805 q 702 336 630 495 q 479 197 532 295 q 621 157 546 157 q 635 157 628 157 q 811 219 742 161 q 892 395 892 287 q 836 582 892 475 q 627 805 780 688 m 418 243 q 444 430 444 315 q 443 500 444 441 q 439 669 441 559 q 423 885 438 778 q 274 610 274 798 q 275 578 274 595 q 418 243 288 366 m 411 1070 q 394 1078 394 1070 q 397 1082 394 1080 l 543 1227 q 556 1231 547 1231 l 636 1231 q 651 1227 646 1231 l 794 1082 q 797 1078 797 1080 q 781 1070 797 1070 l 745 1070 q 734 1072 736 1070 l 595 1151 q 455 1071 462 1072 q 446 1070 448 1070 l 411 1070 z "},"Õ":{"ha":1103,"x_min":23,"x_max":1081,"o":"m 635 1041 q 628 892 629 954 q 693 957 661 924 q 758 1019 726 991 q 1081 684 855 820 q 1023 397 1080 522 q 886 189 966 273 q 719 63 806 105 q 570 20 631 20 q 169 204 282 20 q 23 632 55 387 q 279 900 132 790 q 635 1041 425 1010 m 627 805 q 702 336 630 495 q 479 197 532 295 q 621 157 546 157 q 635 157 628 157 q 811 219 742 161 q 892 395 892 287 q 836 582 892 475 q 627 805 780 688 m 418 243 q 444 430 444 315 q 443 500 444 441 q 439 669 441 559 q 423 885 438 778 q 274 610 274 798 q 275 578 274 595 q 418 243 288 366 m 764 1298 l 924 1153 q 795 1011 890 1070 q 473 1176 558 1176 q 443 1168 454 1176 q 370 971 378 1126 l 178 1161 q 377 1295 251 1295 q 578 1222 467 1295 q 688 1177 656 1177 q 732 1192 720 1177 q 764 1298 764 1230 z "},"Ö":{"ha":1114,"x_min":28,"x_max":1086,"o":"m 640 1041 q 633 892 634 954 q 698 957 665 924 q 763 1019 730 991 q 1086 684 861 820 q 1028 397 1085 522 q 891 189 971 273 q 724 63 811 105 q 574 20 637 20 q 174 204 288 20 q 28 632 60 387 q 284 900 137 790 q 640 1041 431 1010 m 821 987 l 1065 1036 q 1059 903 1059 972 q 1038 778 1059 833 q 920 872 978 814 q 821 987 861 930 m 110 807 q 86 980 86 932 q 91 1059 86 1028 l 363 998 q 110 807 245 935 m 632 805 q 707 336 635 495 q 485 197 536 295 q 626 157 551 157 q 640 157 633 157 q 817 219 747 161 q 897 395 897 287 q 841 582 897 475 q 632 805 785 688 m 424 243 q 449 429 449 315 q 447 500 449 441 q 445 669 446 559 q 428 885 444 778 q 279 610 279 798 q 280 578 279 594 q 424 243 293 366 z "},"×":{"ha":614,"x_min":88,"x_max":530,"o":"m 88 340 l 235 477 l 96 625 l 170 696 l 310 547 l 458 688 l 530 614 l 380 473 l 519 326 l 444 254 l 305 401 l 159 265 l 88 340 z "},"Ø":{"ha":1103,"x_min":23,"x_max":1081,"o":"m 878 1031 l 1045 1031 l 902 821 q 1081 684 978 746 q 1023 397 1080 522 q 886 189 966 273 q 719 63 806 105 q 570 20 631 20 q 374 47 459 20 l 339 -5 l 171 -5 l 250 111 q 169 203 201 149 q 23 632 55 387 q 279 900 132 790 q 635 1041 425 1010 q 628 892 629 954 q 693 957 661 924 q 758 1019 726 991 q 808 930 780 973 l 878 1031 m 702 336 q 479 197 532 295 q 621 157 546 157 q 635 157 628 157 q 811 219 742 161 q 892 395 892 287 q 840 574 892 475 q 787 652 820 613 l 659 465 q 702 336 676 391 m 444 395 q 443 491 444 422 q 439 669 441 559 q 423 885 438 778 q 274 609 274 798 q 374 292 274 420 l 444 395 m 627 805 q 631 671 627 734 l 689 754 q 627 805 661 780 z "},"Ù":{"ha":954,"x_min":52,"x_max":926,"o":"m 781 21 q 591 142 686 81 q 622 276 610 206 l 391 21 q 243 113 333 73 q 52 188 154 153 q 221 395 187 278 q 231 460 231 427 q 160 654 231 549 q 89 852 89 759 q 272 1103 89 998 q 345 1062 307 1082 q 238 928 238 989 q 245 899 238 913 q 445 774 279 828 q 445 761 445 768 q 319 336 445 549 q 479 267 427 267 q 635 397 528 267 q 640 549 640 458 q 628 771 640 639 q 629 783 629 777 q 601 832 629 813 q 543 875 573 852 l 705 1054 q 901 935 777 1008 q 851 819 857 876 q 846 702 846 762 l 842 437 q 842 414 842 425 q 860 286 842 331 q 926 222 879 240 l 781 21 m 484 1236 q 518 996 518 1125 q 518 973 518 984 l 328 1211 l 484 1236 z "},"Ú":{"ha":954,"x_min":52,"x_max":926,"o":"m 781 21 q 591 142 686 81 q 622 276 610 206 l 391 21 q 243 113 333 73 q 52 188 154 153 q 221 395 187 278 q 231 460 231 427 q 160 654 231 549 q 89 852 89 759 q 272 1103 89 998 q 345 1062 307 1082 q 238 928 238 989 q 245 899 238 913 q 445 774 279 828 q 445 761 445 768 q 319 336 445 549 q 479 267 427 267 q 635 397 528 267 q 640 549 640 458 q 628 771 640 639 q 629 783 629 777 q 601 832 629 813 q 543 875 573 852 l 705 1054 q 901 935 777 1008 q 851 819 857 876 q 846 702 846 762 l 842 437 q 842 414 842 425 q 860 286 842 331 q 926 222 879 240 l 781 21 m 470 980 q 470 1024 470 991 q 504 1243 470 1132 l 660 1218 l 470 980 z "},"Û":{"ha":954,"x_min":52,"x_max":926,"o":"m 781 21 q 591 142 686 81 q 622 276 610 206 l 391 21 q 243 113 333 73 q 52 188 154 153 q 221 395 187 278 q 231 460 231 427 q 160 654 231 549 q 89 852 89 759 q 272 1103 89 998 q 345 1062 307 1082 q 238 928 238 989 q 245 899 238 913 q 445 774 279 828 q 445 761 445 768 q 319 336 445 549 q 479 267 427 267 q 635 397 528 267 q 640 549 640 458 q 628 771 640 639 q 629 783 629 777 q 601 832 629 813 q 543 875 573 852 l 705 1054 q 901 935 777 1008 q 851 819 857 876 q 846 702 846 762 l 842 437 q 842 414 842 425 q 860 286 842 331 q 926 222 879 240 l 781 21 m 341 1108 q 324 1116 324 1108 q 327 1120 324 1118 l 473 1265 q 486 1269 477 1269 l 566 1269 q 581 1265 576 1269 l 724 1120 q 727 1116 727 1118 q 711 1108 727 1108 l 675 1108 q 665 1110 667 1108 l 525 1189 q 385 1109 392 1109 q 376 1108 378 1108 l 341 1108 z "},"Ü":{"ha":925,"x_min":24,"x_max":899,"o":"m 753 21 q 564 142 659 81 q 594 276 583 206 l 363 21 q 216 113 305 73 q 24 188 126 153 q 194 395 159 278 q 203 460 203 427 q 135 649 203 549 q 47 882 47 778 q 214 1103 47 1008 q 292 1059 248 1083 q 192 935 192 991 q 205 898 192 916 q 417 774 252 828 q 417 765 417 770 q 291 336 417 549 q 451 267 399 267 q 608 397 500 267 q 612 548 612 458 q 600 771 612 637 q 602 797 602 781 q 588 823 602 812 q 545 857 574 834 q 707 1036 602 918 q 873 935 747 1010 q 823 819 829 876 q 818 702 818 762 l 814 437 q 814 414 814 425 q 832 286 814 331 q 899 222 851 240 l 753 21 m 505 1059 l 616 973 q 370 866 523 872 l 505 1059 m 329 1105 l 462 1059 q 267 878 405 949 l 329 1105 z "},"Ý":{"ha":913,"x_min":-40,"x_max":888,"o":"m 467 -383 q 233 -317 357 -383 q 124 -291 184 -291 q -16 -341 65 -291 l -40 -309 q 61 -143 6 -194 q 178 -92 115 -92 q 274 -115 214 -92 q 511 -178 437 -178 q 671 -90 649 -178 q 677 -37 677 -66 q 663 17 677 -7 q 616 134 649 42 q 583 264 583 227 q 584 276 583 271 l 353 21 q 205 113 295 73 q 14 188 115 153 q 183 395 149 278 q 193 460 193 427 q 121 654 193 549 q 50 852 50 759 q 234 1103 50 998 q 270 1082 252 1093 q 306 1062 288 1072 q 200 929 200 989 q 207 899 200 913 q 407 774 241 828 q 407 770 407 772 q 281 336 407 549 q 441 267 389 267 q 597 397 490 267 q 602 551 602 460 q 589 771 602 643 q 590 783 590 777 q 563 832 590 813 q 505 875 535 852 l 667 1054 q 863 935 723 1019 q 813 819 819 876 q 807 702 808 762 l 804 437 q 804 414 804 425 q 822 286 804 331 q 888 222 841 240 q 768 -61 831 143 q 588 -345 705 -265 q 467 -383 530 -383 m 413 901 q 413 945 413 912 q 447 1164 413 1053 l 603 1139 l 413 901 z "},"Þ":{"ha":880,"x_min":27,"x_max":836,"o":"m 103 -237 q 172 173 156 -84 l 33 223 l 179 362 q 179 498 179 393 q 170 825 179 602 q 99 858 135 842 q 27 892 62 875 l 144 1041 q 412 961 330 987 q 403 821 410 939 q 394 682 396 702 l 600 847 q 836 506 836 669 q 597 21 836 332 l 380 99 q 406 -47 386 -10 q 103 -237 295 -115 m 604 224 q 688 340 688 224 q 570 543 688 456 q 467 583 514 583 q 384 529 419 583 q 377 328 380 500 l 600 224 q 604 224 602 224 z "},"ß":{"ha":688,"x_min":26,"x_max":618,"o":"m 606 840 q 394 747 560 784 q 336 792 369 763 q 269 827 303 822 q 242 787 252 802 q 267 674 260 747 q 407 669 334 669 q 557 679 481 669 l 605 625 l 494 486 q 618 221 618 366 q 592 83 618 155 q 238 -325 509 -146 l 235 -203 q 415 -63 364 -151 q 475 86 465 24 q 477 110 477 98 q 289 321 477 231 l 414 534 l 272 534 q 269 412 271 474 q 265 294 266 350 q 79 -284 264 168 q 26 -256 58 -263 q 82 105 73 -88 q 92 426 92 298 q 89 651 92 553 q 34 750 87 707 q 159 877 92 812 q 284 1005 225 942 q 441 919 346 985 q 606 840 537 854 z "},"à":{"ha":625,"x_min":25,"x_max":603,"o":"m 25 515 l 290 730 l 589 589 q 536 486 536 543 l 533 261 q 557 209 533 238 q 603 162 581 180 l 466 21 l 361 129 q 284 73 323 98 q 215 20 245 47 q 25 137 113 58 q 54 230 50 169 l 52 435 q 52 440 52 437 q 25 515 52 480 m 258 567 q 218 462 218 508 l 218 296 q 237 223 218 245 q 266 183 252 201 q 308 157 279 165 l 363 197 l 363 509 l 258 567 m 358 997 q 392 756 392 886 q 392 734 392 745 l 202 972 l 358 997 z "},"á":{"ha":625,"x_min":25,"x_max":603,"o":"m 25 515 l 290 730 l 589 589 q 536 486 536 543 l 533 261 q 557 209 533 238 q 603 162 581 180 l 466 21 l 361 129 q 284 73 323 98 q 215 20 245 47 q 25 137 113 58 q 54 230 50 169 l 52 435 q 52 440 52 437 q 25 515 52 480 m 258 567 q 218 462 218 508 l 218 296 q 237 223 218 245 q 266 183 252 201 q 308 157 279 165 l 363 197 l 363 509 l 258 567 m 172 711 q 172 755 172 722 q 205 975 172 863 l 361 949 l 172 711 z "},"â":{"ha":625,"x_min":25,"x_max":603,"o":"m 25 515 l 290 730 l 589 589 q 536 486 536 543 l 533 261 q 557 209 533 238 q 603 162 581 180 l 466 21 l 361 129 q 284 73 323 98 q 215 20 245 47 q 25 137 113 58 q 54 230 50 169 l 52 435 q 52 440 52 437 q 25 515 52 480 m 258 567 q 218 462 218 508 l 218 296 q 237 223 218 245 q 266 183 252 201 q 308 157 279 165 l 363 197 l 363 509 l 258 567 m 122 749 q 105 756 105 749 q 108 761 105 758 l 254 906 q 267 909 258 909 l 347 909 q 362 906 357 909 l 505 761 q 508 756 508 758 q 492 749 508 749 l 456 749 q 446 751 448 749 l 306 829 q 166 749 173 750 q 157 749 159 749 l 122 749 z "},"ã":{"ha":625,"x_min":-13,"x_max":603,"o":"m 25 515 l 290 730 l 589 589 q 536 486 536 543 l 533 261 q 557 209 533 238 q 603 162 581 180 l 466 21 l 361 129 q 284 73 323 98 q 215 20 245 47 q 25 137 113 58 q 54 230 50 169 l 52 435 q 52 440 52 437 q 25 515 52 480 m 258 567 q 218 462 218 508 l 218 296 q 237 223 218 245 q 266 183 252 201 q 308 157 279 165 l 363 197 l 363 509 l 258 567 m 397 946 l 508 824 q 418 704 484 754 q 193 843 253 843 q 172 837 180 843 q 122 670 127 801 l -13 831 q 127 944 39 944 q 267 882 189 944 q 343 844 321 844 q 374 856 365 844 q 397 946 397 888 z "},"ä":{"ha":616,"x_min":38,"x_max":589,"o":"m 195 20 q 38 380 38 172 q 61 550 38 459 l 315 730 q 549 627 421 662 l 530 349 q 529 330 529 339 q 589 174 529 240 l 468 20 l 349 153 l 195 20 m 220 574 q 199 397 199 473 q 271 201 199 255 q 298 191 283 191 q 331 203 313 191 q 368 288 366 227 l 374 515 q 220 574 289 532 m 169 730 l 182 998 q 342 936 276 980 l 169 730 m 359 753 l 427 1000 q 584 933 515 977 l 359 753 z "},"å":{"ha":625,"x_min":25,"x_max":603,"o":"m 176 983 q 334 1072 279 1037 q 399 1035 366 1062 q 480 915 467 978 q 481 894 481 907 q 467 867 481 880 l 331 732 l 155 800 q 182 878 182 841 l 182 951 q 176 983 181 974 m 286 994 l 285 859 q 316 833 288 843 q 357 826 344 824 q 393 862 393 833 q 391 876 393 869 q 286 994 365 971 m 25 515 l 290 730 l 589 589 q 536 486 536 543 l 533 261 q 557 209 533 238 q 603 162 581 180 l 466 21 l 361 129 q 284 73 323 98 q 215 20 245 47 q 25 137 113 58 q 54 230 50 169 l 52 435 q 52 440 52 437 q 25 515 52 480 m 258 567 q 218 462 218 508 l 218 296 q 237 223 218 245 q 266 183 252 201 q 308 157 279 165 l 363 197 l 363 509 l 258 567 z "},"æ":{"ha":869,"x_min":50,"x_max":855,"o":"m 222 732 q 442 644 385 667 l 589 730 l 589 732 l 591 732 l 591 732 l 855 543 l 581 254 q 642 217 608 220 q 698 214 676 214 q 750 216 720 214 q 825 220 781 218 q 753 120 789 170 l 683 21 q 463 109 608 51 l 316 22 l 316 20 l 315 21 l 314 21 l 50 210 l 325 499 q 263 536 297 532 q 207 539 229 539 q 155 537 185 539 q 81 533 125 534 q 152 633 117 583 l 222 732 m 570 549 q 531 442 531 549 q 551 320 531 381 q 553 310 551 314 l 663 425 q 674 450 674 437 q 662 481 674 462 q 638 512 650 500 q 570 549 595 549 m 335 203 q 374 311 374 203 q 354 433 374 372 q 352 443 354 439 l 243 328 q 231 303 231 315 q 243 272 231 291 q 267 241 255 253 q 335 203 310 203 z "},"ç":{"ha":532,"x_min":22,"x_max":522,"o":"m 328 223 q 411 286 374 223 q 440 266 425 275 q 469 245 454 256 q 365 142 412 189 q 280 58 317 95 l 218 -39 q 293 -28 254 -28 q 367 -55 332 -28 q 403 -124 403 -81 q 342 -213 403 -186 q 245 -232 301 -232 q 81 -208 138 -232 l 94 -177 q 173 -190 132 -190 q 264 -127 264 -190 q 248 -91 264 -103 q 210 -78 231 -78 q 171 -87 188 -78 l 151 -67 l 218 35 q 23 355 23 173 q 84 541 23 449 q 281 741 145 632 q 401 666 339 703 q 522 594 463 630 l 387 475 q 322 518 346 500 q 271 548 298 536 q 232 560 244 560 q 207 547 220 560 q 165 450 165 504 q 275 249 165 356 q 328 223 302 223 z "},"è":{"ha":538,"x_min":25,"x_max":525,"o":"m 353 21 l 28 151 q 46 362 46 252 q 25 593 46 473 l 259 730 l 259 732 l 260 732 l 261 732 l 525 543 l 250 254 q 312 217 278 220 q 368 214 346 214 q 420 216 390 214 q 494 220 450 218 q 423 120 458 170 q 353 21 388 71 m 240 549 q 201 442 201 549 q 221 320 201 381 q 223 310 221 314 l 332 425 q 344 450 344 437 q 332 481 344 462 q 308 512 320 500 q 240 549 265 549 m 376 943 q 410 703 410 832 q 410 680 410 691 l 220 918 l 376 943 z "},"é":{"ha":538,"x_min":25,"x_max":525,"o":"m 353 21 l 28 151 q 46 362 46 252 q 25 593 46 473 l 259 730 l 259 732 l 260 732 l 261 732 l 525 543 l 250 254 q 312 217 278 220 q 368 214 346 214 q 420 216 390 214 q 494 220 450 218 q 423 120 458 170 q 353 21 388 71 m 240 549 q 201 442 201 549 q 221 320 201 381 q 223 310 221 314 l 332 425 q 344 450 344 437 q 332 481 344 462 q 308 512 320 500 q 240 549 265 549 m 113 696 q 113 740 113 707 q 147 959 113 848 l 303 934 l 113 696 z "},"ê":{"ha":538,"x_min":25,"x_max":525,"o":"m 353 21 l 28 151 q 46 362 46 252 q 25 593 46 473 l 259 730 l 259 732 l 260 732 l 261 732 l 525 543 l 250 254 q 312 217 278 220 q 368 214 346 214 q 420 216 390 214 q 494 220 450 218 q 423 120 458 170 q 353 21 388 71 m 240 549 q 201 442 201 549 q 221 320 201 381 q 223 310 221 314 l 332 425 q 344 450 344 437 q 332 481 344 462 q 308 512 320 500 q 240 549 265 549 m 83 768 q 66 776 66 768 q 68 781 66 778 l 215 926 q 228 929 218 929 l 308 929 q 323 926 317 929 l 466 781 q 469 776 469 778 q 453 768 469 768 l 417 768 q 406 770 408 768 l 267 849 q 126 769 134 770 q 117 768 119 768 l 83 768 z "},"ë":{"ha":538,"x_min":25,"x_max":525,"o":"m 353 21 l 28 151 q 46 362 46 252 q 25 593 46 473 l 259 730 l 259 732 l 260 732 l 261 732 l 525 543 l 250 254 q 312 217 278 220 q 368 214 346 214 q 420 216 390 214 q 494 220 450 218 q 423 120 458 170 q 353 21 388 71 m 240 549 q 201 442 201 549 q 221 320 201 381 q 223 310 221 314 l 332 425 q 344 450 344 437 q 332 481 344 462 q 308 512 320 500 q 240 549 265 549 m 261 750 l 309 967 q 472 907 399 949 q 261 750 374 814 m 68 730 l 99 980 q 252 922 185 959 q 68 730 171 818 z "},"ì":{"ha":319,"x_min":-56,"x_max":304,"o":"m 20 604 l 122 732 l 274 661 q 256 607 266 633 q 247 553 247 581 l 237 277 q 237 271 237 274 q 258 218 237 239 q 304 186 278 197 l 169 21 l 25 137 q 64 231 64 184 l 69 538 q 20 604 69 571 m 100 1057 q 134 817 134 946 q 134 794 134 805 l -56 1032 l 100 1057 z "},"í":{"ha":319,"x_min":20,"x_max":366,"o":"m 20 604 l 122 732 l 274 661 q 256 607 266 633 q 247 553 247 581 l 237 277 q 237 271 237 274 q 258 218 237 239 q 304 186 278 197 l 169 21 l 25 137 q 64 231 64 184 l 69 538 q 20 604 69 571 m 138 790 q 138 834 138 801 q 144 925 138 867 q 210 1046 150 983 l 366 1021 l 138 790 z "},"î":{"ha":319,"x_min":-53,"x_max":351,"o":"m 20 604 l 122 732 l 274 661 q 256 607 266 633 q 247 553 247 581 l 237 277 q 237 271 237 274 q 258 218 237 239 q 304 186 278 197 l 169 21 l 25 137 q 64 231 64 184 l 69 538 q 20 604 69 571 m -35 794 q -52 802 -52 794 q -50 806 -52 804 l 97 951 q 110 955 100 955 l 190 955 q 205 951 199 955 l 348 806 q 351 802 351 804 q 335 794 351 794 l 299 794 q 288 796 290 794 l 149 875 q 8 795 16 795 q -1 794 1 794 l -35 794 z "},"ï":{"ha":319,"x_min":-43,"x_max":361,"o":"m 20 604 l 122 732 l 274 661 q 256 607 266 633 q 247 553 247 581 l 237 277 q 237 271 237 274 q 258 218 237 239 q 304 186 278 197 l 169 21 l 25 137 q 64 231 64 184 l 69 538 q 20 604 69 571 m 151 750 l 198 967 q 361 907 288 949 q 151 750 264 814 m -43 730 l -12 980 q 142 922 75 959 q -43 730 60 818 z "},"ð":{"ha":571,"x_min":23,"x_max":555,"o":"m 119 828 l 142 837 q 104 882 123 859 l 284 977 q 333 912 309 945 l 473 968 l 428 815 l 401 804 q 555 274 536 567 q 412 156 471 210 q 315 21 353 102 q 166 89 241 54 q 30 180 92 123 q 26 385 27 282 q 23 591 24 488 q 242 695 186 666 q 218 732 231 713 l 75 675 l 119 828 m 381 194 q 381 208 381 201 q 274 642 381 436 q 186 514 200 606 q 181 422 181 478 q 195 279 181 367 q 381 194 290 203 z "},"ñ":{"ha":630,"x_min":27,"x_max":607,"o":"m 274 633 l 353 732 l 570 576 l 549 496 l 541 277 q 541 273 541 275 q 561 219 541 240 q 607 186 581 197 l 471 21 q 394 91 421 60 q 368 216 368 121 q 368 231 368 223 l 372 481 q 286 576 372 510 l 258 534 l 245 277 q 245 273 245 275 q 266 219 245 240 q 313 186 286 197 l 177 21 l 34 137 q 73 231 73 184 l 78 538 q 28 604 78 571 l 130 732 l 274 633 m 417 873 l 523 771 q 437 671 500 713 q 223 787 280 787 q 204 782 211 787 q 155 643 160 752 l 28 776 q 160 871 76 871 q 293 819 219 871 q 366 788 345 788 q 395 798 387 788 q 417 873 417 824 z "},"ò":{"ha":586,"x_min":6,"x_max":560,"o":"m 54 543 q 317 735 212 649 q 422 655 369 713 q 557 399 536 532 q 560 369 560 383 q 535 296 560 324 l 310 9 l 20 153 q 66 318 66 248 l 64 476 q 54 543 62 525 m 237 567 l 235 279 q 281 227 241 245 q 335 208 322 208 q 353 210 349 208 q 413 285 413 223 q 410 317 413 299 q 343 486 387 429 q 237 567 299 543 m 162 947 q 196 706 196 836 q 196 684 196 694 l 6 922 l 162 947 z "},"ó":{"ha":586,"x_min":20,"x_max":570,"o":"m 54 543 q 317 735 212 649 q 422 655 369 713 q 557 399 536 532 q 560 369 560 383 q 535 296 560 324 l 310 9 l 20 153 q 66 318 66 248 l 64 476 q 54 543 62 525 m 237 567 l 235 279 q 281 227 241 245 q 335 208 322 208 q 353 210 349 208 q 413 285 413 223 q 410 317 413 299 q 343 486 387 429 q 237 567 299 543 m 380 729 q 380 773 380 740 q 414 992 380 881 l 570 967 l 380 729 z "},"ô":{"ha":586,"x_min":20,"x_max":560,"o":"m 54 543 q 317 735 212 649 q 422 655 369 713 q 557 399 536 532 q 560 369 560 383 q 535 296 560 324 l 310 9 l 20 153 q 66 318 66 248 l 64 476 q 54 543 62 525 m 237 567 l 235 279 q 281 227 241 245 q 335 208 322 208 q 353 210 349 208 q 413 285 413 223 q 410 317 413 299 q 343 486 387 429 q 237 567 299 543 m 131 773 q 114 781 114 773 q 117 785 114 783 l 263 930 q 276 934 267 934 l 356 934 q 371 930 366 934 l 514 785 q 517 781 517 783 q 501 773 517 773 l 465 773 q 454 775 456 773 l 315 854 q 175 774 182 774 q 165 773 168 773 l 131 773 z "},"õ":{"ha":586,"x_min":3,"x_max":560,"o":"m 54 543 q 317 735 212 649 q 422 655 369 713 q 557 399 536 532 q 560 369 560 383 q 535 296 560 324 l 310 9 l 20 153 q 66 318 66 248 l 64 476 q 54 543 62 525 m 237 567 l 235 279 q 281 227 241 245 q 335 208 322 208 q 353 210 349 208 q 413 285 413 223 q 410 317 413 299 q 343 486 387 429 q 237 567 299 543 m 332 851 l 422 752 q 349 655 403 695 q 169 768 217 768 q 152 762 158 768 q 111 628 115 734 l 3 757 q 115 849 44 849 q 228 799 165 849 q 289 768 271 768 q 314 778 307 768 q 332 851 332 804 z "},"ö":{"ha":598,"x_min":18,"x_max":580,"o":"m 52 543 q 315 735 208 646 q 420 655 367 713 q 556 399 535 532 q 559 370 559 383 q 533 296 559 324 l 309 9 l 18 153 q 50 229 35 188 q 64 318 64 269 l 62 476 q 52 543 61 525 m 369 750 l 416 967 q 580 907 507 949 q 369 750 482 814 m 176 730 l 207 980 q 360 922 293 959 q 176 730 279 818 m 235 567 l 233 279 q 279 227 239 245 q 334 208 320 208 q 352 210 347 208 q 411 284 411 223 q 408 317 411 299 q 341 486 385 429 q 235 567 298 543 z "},"ø":{"ha":586,"x_min":20,"x_max":560,"o":"m 54 543 q 317 735 212 649 q 391 686 353 719 l 418 740 l 518 741 l 455 617 q 517 520 488 576 q 560 382 560 440 q 535 296 560 324 l 310 9 l 179 74 l 142 1 l 47 1 l 102 111 l 20 153 q 66 318 66 248 l 64 476 q 54 543 62 525 m 262 238 q 297 220 272 231 q 335 208 322 208 q 353 210 349 208 q 413 285 413 223 q 403 347 413 299 q 368 446 393 394 l 262 238 m 237 567 l 235 374 l 309 522 q 237 567 277 552 z "},"ù":{"ha":664,"x_min":28,"x_max":637,"o":"m 353 604 l 455 732 l 607 661 q 590 607 600 633 q 580 553 580 581 l 570 277 q 570 273 570 275 q 591 219 570 240 q 637 186 611 197 l 502 21 l 354 150 l 178 21 l 35 137 q 74 231 74 184 l 79 538 q 28 604 79 571 l 132 732 l 283 661 q 266 607 275 633 q 256 553 256 581 l 247 277 q 271 209 245 245 q 293 199 279 199 q 398 260 327 199 l 403 538 q 353 604 403 571 m 303 940 q 337 699 337 829 q 337 677 337 688 l 147 915 l 303 940 z "},"ú":{"ha":664,"x_min":28,"x_max":637,"o":"m 353 604 l 455 732 l 607 661 q 590 607 600 633 q 580 553 580 581 l 570 277 q 570 273 570 275 q 591 219 570 240 q 637 186 611 197 l 502 21 l 354 150 l 178 21 l 35 137 q 74 231 74 184 l 79 538 q 28 604 79 571 l 132 732 l 283 661 q 266 607 275 633 q 256 553 256 581 l 247 277 q 271 209 245 245 q 293 199 279 199 q 398 260 327 199 l 403 538 q 353 604 403 571 m 325 699 q 325 743 325 709 q 359 962 325 850 l 515 937 l 325 699 z "},"û":{"ha":664,"x_min":28,"x_max":637,"o":"m 353 604 l 455 732 l 607 661 q 590 607 600 633 q 580 553 580 581 l 570 277 q 570 273 570 275 q 591 219 570 240 q 637 186 611 197 l 502 21 l 354 150 l 178 21 l 35 137 q 74 231 74 184 l 79 538 q 28 604 79 571 l 132 732 l 283 661 q 266 607 275 633 q 256 553 256 581 l 247 277 q 271 209 245 245 q 293 199 279 199 q 398 260 327 199 l 403 538 q 353 604 403 571 m 130 767 q 113 774 113 767 q 116 779 113 777 l 262 924 q 275 928 266 928 l 355 928 q 370 924 365 928 l 513 779 q 516 774 516 777 q 500 767 516 767 l 465 767 q 454 769 456 767 l 314 848 q 174 768 181 768 q 165 767 167 767 l 130 767 z "},"ü":{"ha":655,"x_min":23,"x_max":631,"o":"m 347 604 l 449 732 l 601 661 q 584 607 593 633 q 574 553 574 581 l 564 277 q 564 273 564 275 q 585 219 564 240 q 631 186 605 197 l 496 21 l 349 150 l 172 21 l 28 137 q 68 231 68 184 l 73 538 q 23 604 73 571 l 125 732 l 277 661 q 260 607 269 633 q 250 553 250 581 l 241 277 q 266 209 240 245 q 287 199 273 199 q 393 260 321 199 l 397 538 q 347 604 397 571 m 374 750 l 421 967 q 585 907 512 949 q 374 750 488 814 m 180 730 l 212 980 q 366 922 298 959 q 180 730 284 818 z "},"ý":{"ha":662,"x_min":24,"x_max":652,"o":"m 315 23 l 239 58 l 75 108 q 116 231 116 159 l 121 538 q 71 604 121 572 l 174 732 l 336 625 q 316 585 329 597 q 300 545 302 573 l 269 227 q 297 162 267 206 q 371 116 326 118 q 446 538 441 278 q 397 604 447 570 l 499 732 l 652 625 q 637 588 645 597 q 612 504 629 580 q 539 296 595 429 q 416 47 483 163 q 280 -154 349 -68 q 155 -269 210 -240 l 24 -161 q 315 23 222 -89 m 365 676 q 365 720 365 687 q 399 939 365 828 l 555 914 l 365 676 z "},"þ":{"ha":595,"x_min":4,"x_max":578,"o":"m 276 -179 q 38 -279 160 -197 l 4 -242 q 60 -160 24 -230 q 96 -33 96 -90 l 89 793 q 21 878 89 844 l 28 909 q 319 1041 163 957 l 362 1015 q 265 797 266 957 l 264 657 l 377 747 q 472 663 429 725 q 576 392 561 535 q 578 348 578 375 q 563 302 578 321 l 338 9 l 267 45 q 276 -179 268 -8 m 264 576 l 262 283 q 309 230 269 249 q 363 212 349 212 q 382 213 377 212 q 441 289 441 228 q 437 321 441 304 q 371 494 414 435 q 264 576 327 552 z "},"ÿ":{"ha":662,"x_min":24,"x_max":652,"o":"m 315 23 l 239 58 l 75 108 q 116 231 116 159 l 121 538 q 71 604 121 572 l 174 732 l 336 625 q 316 585 329 597 q 300 545 302 573 l 269 227 q 297 162 267 206 q 371 116 326 118 q 446 538 441 278 q 397 604 447 570 l 499 732 l 652 625 q 637 588 645 597 q 612 504 629 580 q 539 296 595 429 q 416 47 483 163 q 280 -154 349 -68 q 155 -269 210 -240 l 24 -161 q 315 23 222 -89 m 429 733 l 477 950 q 640 890 567 932 q 429 733 543 798 m 236 713 l 267 963 q 420 905 353 942 q 236 713 339 801 z "},"Œ":{"ha":1259,"x_min":23,"x_max":1242,"o":"m 1242 912 l 1126 778 q 920 865 1021 851 q 911 732 913 807 l 1192 732 l 1192 572 l 915 572 q 930 393 917 495 l 774 336 q 1131 220 903 220 q 1184 222 1157 220 l 1036 21 q 771 92 886 37 q 570 20 659 20 q 169 204 282 20 q 23 632 55 387 q 279 900 132 790 q 635 1041 425 1010 l 633 847 l 964 1041 q 1242 912 1059 975 m 444 430 l 437 732 q 423 885 433 810 q 274 610 274 798 q 275 578 274 595 q 418 243 288 366 q 444 430 444 315 m 722 391 l 772 408 q 752 665 752 557 q 755 839 752 774 q 689 791 715 819 q 653 739 664 764 q 642 667 642 713 q 643 597 642 621 q 722 391 648 490 m 662 159 q 553 275 596 212 q 479 197 503 241 q 621 157 546 157 q 662 159 646 157 z "},"œ":{"ha":923,"x_min":20,"x_max":895,"o":"m 54 543 q 317 735 212 649 q 422 655 369 713 q 449 624 437 640 l 630 730 l 630 732 l 631 732 l 631 732 l 895 543 l 621 254 q 682 217 648 220 q 738 214 716 214 q 790 216 760 214 q 865 220 821 218 l 723 21 q 415 144 635 56 l 310 9 l 20 153 q 66 318 66 248 l 64 476 q 54 543 62 525 m 237 567 l 235 279 q 281 227 241 245 q 335 208 322 208 q 353 210 349 208 q 413 285 413 223 q 410 317 413 299 q 343 486 387 429 q 237 567 299 543 m 610 549 q 571 442 571 549 q 591 320 571 381 q 593 310 591 318 l 703 425 q 714 450 714 438 q 703 481 714 463 q 678 512 691 500 q 610 549 635 549 z "},"Š":{"ha":1000,"x_min":28,"x_max":987,"o":"m 600 966 q 587 963 597 963 l 507 963 q 492 966 498 963 l 349 1112 q 349 1120 345 1116 q 362 1124 353 1124 l 398 1124 q 409 1122 407 1124 l 549 1043 q 689 1123 682 1122 q 698 1124 696 1124 l 732 1124 q 747 1120 742 1124 q 747 1112 752 1116 l 600 966 m 675 873 q 802 846 737 846 q 961 889 867 846 l 987 861 q 743 672 886 672 q 637 692 703 672 q 372 747 454 747 q 195 671 221 747 q 189 625 189 650 q 208 572 189 600 q 315 522 242 522 q 447 635 389 522 q 568 644 511 644 q 762 610 678 644 q 930 465 889 558 q 947 376 947 427 q 913 258 947 325 q 676 39 855 142 q 602 20 644 20 q 507 31 558 20 q 64 301 208 84 q 28 418 28 354 q 28 433 28 426 q 289 893 52 720 q 413 926 334 926 q 675 873 543 924 m 218 456 q 414 273 244 353 q 654 212 543 212 q 724 218 690 212 q 830 266 793 231 q 869 345 869 303 q 830 426 869 387 q 707 478 791 465 q 676 479 699 479 q 596 460 654 479 q 500 369 538 441 q 488 369 494 369 q 218 456 366 369 z "},"š":{"ha":608,"x_min":18,"x_max":590,"o":"m 363 772 q 350 768 359 768 l 270 768 q 255 772 260 768 l 112 917 q 111 925 107 922 q 125 929 115 929 l 161 929 q 172 927 170 929 l 311 848 q 451 928 444 928 q 460 929 458 929 l 495 929 q 510 925 505 929 q 509 917 515 922 l 363 772 m 18 147 l 136 271 q 45 464 72 356 q 286 732 127 598 q 574 667 412 698 l 590 671 l 463 541 l 574 262 q 342 21 448 168 q 18 147 210 99 m 376 194 q 445 243 445 194 q 347 422 445 286 l 184 254 q 376 194 290 194 m 269 410 l 401 545 q 243 577 283 577 q 198 569 203 577 q 194 555 194 562 q 269 410 194 516 z "},"Ÿ":{"ha":913,"x_min":-40,"x_max":888,"o":"m 467 -383 q 233 -317 357 -383 q 124 -291 184 -291 q -16 -341 65 -291 l -40 -309 q 61 -143 6 -194 q 178 -92 115 -92 q 274 -115 214 -92 q 511 -178 437 -178 q 671 -90 649 -178 q 677 -37 677 -66 q 663 17 677 -7 q 616 134 649 42 q 583 264 583 227 q 584 276 583 271 l 353 21 q 205 113 295 73 q 14 188 115 153 q 183 395 149 278 q 193 460 193 427 q 121 654 193 549 q 50 852 50 759 q 234 1103 50 998 q 270 1082 252 1093 q 306 1062 288 1072 q 200 929 200 989 q 207 899 200 913 q 407 774 241 828 q 407 770 407 772 q 281 336 407 549 q 441 267 389 267 q 597 397 490 267 q 602 551 602 460 q 589 771 602 643 q 590 783 590 777 q 563 832 590 813 q 505 875 535 852 l 667 1054 q 863 935 723 1019 q 813 819 819 876 q 807 702 808 762 l 804 437 q 804 414 804 425 q 822 286 804 331 q 888 222 841 240 q 768 -61 831 143 q 588 -345 705 -265 q 467 -383 530 -383 m 520 987 l 568 1204 q 731 1144 658 1186 q 520 987 633 1052 m 327 967 l 358 1217 q 511 1159 444 1196 q 327 967 430 1055 z "},"Ž":{"ha":823,"x_min":34,"x_max":795,"o":"m 463 899 q 450 895 460 895 l 370 895 q 355 899 360 895 l 212 1044 q 212 1052 208 1048 q 225 1056 216 1056 l 261 1056 q 272 1054 270 1056 l 412 975 q 552 1055 545 1055 q 561 1056 559 1056 l 595 1056 q 610 1052 605 1056 q 610 1044 615 1048 l 463 899 m 416 818 l 587 820 q 779 817 684 820 l 511 572 q 738 377 679 471 q 795 188 796 283 q 732 -8 793 92 q 575 -184 671 -109 q 359 -294 479 -259 q 235 -313 296 -313 q 115 -297 174 -313 q 37 -166 37 -276 q 87 60 37 -35 q 411 325 165 208 q 218 411 347 368 l 481 623 q 298 645 401 645 q 34 589 149 645 l 137 844 q 416 818 270 818 m 254 -161 q 352 -184 302 -184 q 452 -162 401 -184 q 574 -77 553 -117 q 602 32 602 -35 q 536 205 602 131 q 461 211 507 211 q 342 185 416 211 q 226 117 268 159 q 161 -15 184 75 q 157 -44 157 -30 q 254 -161 157 -115 z "},"ž":{"ha":526,"x_min":28,"x_max":509,"o":"m 321 794 q 309 791 318 791 l 229 791 q 214 794 218 791 l 71 939 q 70 948 66 944 q 83 951 74 951 l 119 951 q 130 949 128 951 l 270 871 q 410 951 403 950 q 419 951 417 951 l 454 951 q 468 948 463 951 q 468 939 473 944 l 321 794 m 265 313 q 142 385 226 347 l 309 562 q 249 567 281 567 q 52 532 165 567 l 92 749 q 264 718 172 718 q 334 720 276 718 q 498 726 393 722 l 328 520 q 472 356 435 435 q 509 201 509 277 q 369 -115 506 33 q 160 -224 269 -224 q 74 -208 119 -224 q 28 -100 28 -191 q 60 90 28 9 q 265 313 110 214 m 166 -96 q 223 -117 195 -117 q 279 -98 252 -117 q 380 80 380 -25 q 344 212 380 142 q 298 216 327 216 q 223 189 270 216 q 149 126 176 162 q 109 23 123 91 q 106 1 106 12 q 166 -96 106 -53 z "},"ſ":{"ha":334,"x_min":24,"x_max":517,"o":"m 517 949 l 395 800 q 275 838 345 829 q 240 787 251 804 q 269 599 269 724 q 267 503 269 585 q 262 294 265 422 q 77 -284 261 169 q 24 -256 56 -263 q 80 104 71 -88 q 89 424 89 296 q 86 651 89 551 q 31 750 85 707 q 133 868 90 812 q 235 987 177 924 q 517 949 328 987 z "},"ƒ":{"ha":694,"x_min":-90,"x_max":739,"o":"m 739 838 q 663 774 739 774 q 606 815 623 774 q 596 844 601 827 q 577 876 591 861 q 543 890 564 890 q 502 875 522 890 q 467 827 482 860 q 421 615 433 757 l 415 549 l 568 549 q 581 541 583 549 l 571 498 q 554 490 569 490 l 410 490 l 385 273 q 264 -68 360 54 q 54 -180 177 -180 q -54 -146 -11 -180 q -90 -82 -90 -116 q -76 -27 -90 -47 q -41 -7 -62 -7 q -7 -13 -20 -7 q 15 -27 5 -18 q 38 -69 31 -42 q 61 -109 46 -96 q 99 -122 76 -122 q 135 -106 122 -122 q 158 -54 148 -90 q 193 183 177 13 l 222 490 l 119 490 q 111 503 108 490 l 121 541 q 134 549 123 549 l 229 549 q 346 842 254 746 q 443 919 402 901 q 563 949 508 949 q 649 938 618 949 q 700 911 680 928 q 739 838 739 880 z "},"ˆ":{"ha":406,"x_min":26,"x_max":429,"o":"m 43 875 q 26 882 26 875 q 29 887 26 884 l 176 1032 q 189 1036 179 1036 l 269 1036 q 283 1032 278 1036 l 427 887 q 429 882 429 884 q 414 875 429 875 l 378 875 q 367 877 369 875 l 227 956 q 87 876 94 876 q 78 875 80 875 l 43 875 z "},"ˇ":{"ha":406,"x_min":26,"x_max":430,"o":"m 412 1036 q 429 1028 429 1036 q 427 1023 429 1026 l 280 878 q 267 875 277 875 l 187 875 q 172 878 178 875 l 29 1023 q 26 1028 26 1026 q 42 1036 26 1036 l 78 1036 q 89 1034 87 1036 l 229 955 q 369 1035 361 1034 q 378 1036 376 1036 l 412 1036 z "},"˚":{"ha":387,"x_min":13,"x_max":370,"o":"m 36 907 q 209 1034 140 977 q 279 981 243 1019 q 368 811 355 899 q 370 782 370 802 q 353 744 370 763 l 205 555 l 13 649 q 43 759 43 712 l 43 863 q 36 907 41 895 m 156 923 l 155 732 q 186 699 159 711 q 222 686 213 686 q 233 687 231 686 q 273 736 273 696 q 271 758 273 746 q 156 923 243 890 z "},"˜":{"ha":370,"x_min":-165,"x_max":582,"o":"m 422 1025 l 582 880 q 452 738 547 797 q 130 903 216 903 q 100 895 112 903 q 28 698 35 853 l -165 888 q 35 1022 -92 1022 q 235 949 124 1022 q 345 904 313 904 q 389 918 377 904 q 422 1025 422 956 z "},"̀":{"ha":0,"x_min":-234,"x_max":-43,"o":"m -78 1139 q -44 899 -44 1028 q -44 876 -44 887 l -234 1114 l -78 1139 z "},"́":{"ha":0,"x_min":-182,"x_max":9,"o":"m -181 916 q -181 960 -181 927 q -147 1179 -181 1068 l 9 1154 l -181 916 z "},"̂":{"ha":0,"x_min":-368,"x_max":36,"o":"m -350 875 q -367 882 -367 875 q -364 887 -367 884 l -218 1032 q -205 1036 -214 1036 l -125 1036 q -110 1032 -115 1036 l 33 887 q 36 882 36 884 q 20 875 36 875 l -16 875 q -26 877 -24 875 l -166 956 q -306 876 -299 876 q -315 875 -313 875 l -350 875 z "},"̃":{"ha":0,"x_min":-532,"x_max":214,"o":"m 54 1025 l 214 880 q 85 738 180 797 q -237 903 -152 903 q -267 895 -256 903 q -340 698 -332 853 l -532 888 q -333 1022 -459 1022 q -132 949 -243 1022 q -22 904 -54 904 q 22 918 9 904 q 54 1025 54 956 z "},"̄":{"ha":0,"x_min":-399,"x_max":-63,"o":"m -399 958 l -63 958 l -63 890 l -399 890 l -399 958 z "},"̈":{"ha":0,"x_min":-408,"x_max":-4,"o":"m -215 750 l -168 967 q -4 907 -77 949 q -215 750 -102 814 m -408 730 l -377 980 q -224 922 -291 959 q -408 730 -305 818 z "},"̊":{"ha":0,"x_min":-370,"x_max":-13,"o":"m -347 907 q -174 1034 -242 977 q -104 981 -139 1019 q -15 811 -28 899 q -13 782 -13 802 q -29 744 -13 763 l -178 555 l -370 649 q -339 759 -339 712 l -340 863 q -347 907 -341 895 m -227 923 l -228 732 q -197 699 -224 711 q -161 686 -170 686 q -149 687 -152 686 q -110 736 -110 696 q -112 758 -110 746 q -227 923 -140 890 z "},"̌":{"ha":0,"x_min":-368,"x_max":35,"o":"m 18 1036 q 35 1028 35 1036 q 32 1023 35 1026 l -115 878 q -127 875 -118 875 l -208 875 q -222 878 -217 875 l -366 1023 q -368 1028 -368 1026 q -353 1036 -368 1036 l -317 1036 q -306 1034 -308 1036 l -166 955 q -26 1035 -33 1034 q -17 1036 -19 1036 l 18 1036 z "},"̧":{"ha":0,"x_min":-475,"x_max":-153,"o":"m -317 0 l -271 0 l -338 -104 q -262 -94 -301 -94 q -188 -120 -224 -94 q -153 -190 -153 -146 q -213 -279 -153 -252 q -309 -298 -254 -298 q -475 -273 -418 -298 l -461 -243 q -382 -256 -423 -256 q -291 -193 -291 -256 q -308 -156 -291 -169 q -346 -144 -324 -144 q -385 -153 -368 -144 l -405 -133 l -317 0 z "},"ẞ":{"ha":929,"x_min":-19,"x_max":908,"o":"m 219 21 q 29 142 124 81 q 60 276 48 206 l 73 397 q 77 549 77 458 q 66 771 77 639 q 66 783 66 777 q 39 832 66 813 q -19 875 11 852 l 143 1054 q 517 1029 363 1029 l 694 1031 q 892 1027 793 1031 l 621 737 q 850 507 791 618 q 908 283 909 396 q 845 51 907 170 q 687 -158 784 -68 q 441 -285 590 -247 q 299 -303 368 -303 q 170 -284 231 -303 q 64 -151 83 -256 l 219 -27 q 310 -123 238 -83 q 452 -157 390 -157 q 562 -132 514 -157 q 685 -31 665 -78 q 714 98 714 20 q 636 336 714 214 q 326 547 557 459 l 591 797 q 407 824 511 824 q 288 813 343 824 q 283 702 283 759 l 279 437 q 279 414 279 425 q 298 286 279 331 q 364 222 317 240 l 219 21 z "},"‌":{"ha":0,"x_min":0,"x_max":0,"o":""},"‍":{"ha":0,"x_min":0,"x_max":0,"o":"z "},"–":{"ha":395,"x_min":0,"x_max":395,"o":"m 0 321 l 0 427 l 395 427 l 395 321 l 0 321 z "},"—":{"ha":694,"x_min":0,"x_max":694,"o":"m 0 321 l 0 427 l 694 427 l 694 321 l 0 321 z "},"‘":{"ha":232,"x_min":12,"x_max":224,"o":"m 224 1045 q 162 845 162 939 q 178 745 162 798 l 12 638 q 188 1051 31 854 l 224 1045 z "},"’":{"ha":233,"x_min":11,"x_max":224,"o":"m 11 658 q 74 857 74 766 q 57 958 74 905 l 224 1065 q 162 838 212 939 q 45 652 113 737 l 11 658 z "},"‚":{"ha":233,"x_min":11,"x_max":224,"o":"m 11 -179 q 74 21 74 -71 q 57 121 74 69 l 224 228 q 162 2 212 102 q 45 -185 113 -99 l 11 -179 z "},"“":{"ha":395,"x_min":12,"x_max":382,"o":"m 224 1037 q 162 836 162 931 q 178 736 162 789 l 12 629 q 72 856 24 755 q 188 1042 120 957 l 224 1037 m 382 1006 q 320 806 320 897 q 337 706 320 758 l 170 600 q 232 826 182 725 q 347 1013 281 926 l 382 1006 z "},"”":{"ha":395,"x_min":12,"x_max":382,"o":"m 170 610 q 232 810 232 716 q 216 910 232 858 l 382 1018 q 206 604 361 800 l 170 610 m 12 641 q 74 840 74 750 q 57 941 74 888 l 224 1048 q 162 821 212 922 q 47 634 113 720 l 12 641 z "},"„":{"ha":417,"x_min":12,"x_max":382,"o":"m 170 -229 q 232 -28 232 -123 q 216 71 232 19 l 382 179 q 322 -48 370 52 q 206 -235 274 -149 l 170 -229 m 12 -199 q 74 1 74 -90 q 57 102 74 50 l 224 208 q 162 -18 212 83 q 47 -205 113 -119 l 12 -199 z "},"†":{"ha":694,"x_min":28,"x_max":667,"o":"m 372 -175 q 363 -187 372 -187 l 334 -187 q 323 -163 323 -187 q 319 -86 323 -138 q 307 26 314 -35 q 290 149 299 86 q 271 267 281 212 q 239 419 252 385 q 258 440 245 426 q 284 476 271 454 q 318 599 318 532 q 241 575 291 599 q 164 540 191 551 q 116 529 137 529 q 79 536 95 529 q 52 553 62 543 q 28 605 28 577 q 35 649 28 633 q 55 675 43 665 q 108 697 79 697 q 164 688 137 697 q 218 667 191 678 q 318 637 289 637 q 296 758 318 693 q 264 854 274 823 q 254 904 254 885 q 261 941 254 924 q 279 972 267 958 q 342 1004 307 1004 q 395 995 377 1004 q 425 972 414 986 q 446 915 446 945 q 435 854 446 885 q 411 787 424 823 q 376 637 376 690 q 454 658 405 637 q 529 688 503 678 q 588 697 556 697 q 643 674 619 697 q 667 623 667 650 q 661 581 667 596 q 644 555 655 566 q 574 529 618 529 q 499 553 548 529 q 424 588 450 577 q 376 599 397 599 q 410 477 376 533 q 436 441 423 455 q 456 419 450 427 q 389 30 427 353 q 372 -175 372 -112 z "},"‡":{"ha":694,"x_min":28,"x_max":667,"o":"m 319 218 q 253 418 319 311 q 273 455 262 437 q 295 495 285 473 q 319 599 319 546 q 227 575 279 599 q 151 540 175 551 q 111 529 126 529 q 80 534 95 529 q 54 549 66 539 q 28 602 28 573 q 36 646 28 631 q 56 673 43 662 q 106 697 83 697 q 153 688 130 697 q 203 667 176 678 q 319 637 275 637 q 297 751 319 684 q 264 849 275 817 q 254 900 254 881 q 261 938 254 920 q 281 971 268 956 q 342 1004 309 1004 q 394 995 376 1004 q 424 971 412 986 q 446 912 446 943 q 435 849 446 881 q 411 781 424 817 q 376 637 376 684 q 466 658 417 637 q 540 688 515 678 q 594 697 564 697 q 645 673 624 697 q 667 623 667 648 q 662 582 667 597 q 646 555 656 567 q 583 529 624 529 q 544 540 567 529 q 492 564 520 551 q 376 599 420 599 q 393 510 376 545 q 421 456 409 475 q 443 418 433 437 q 384 282 401 361 q 376 218 376 251 q 465 242 416 218 q 538 277 514 266 q 582 288 562 288 q 617 281 602 288 q 644 262 633 274 q 667 211 667 237 q 659 169 667 184 q 640 142 652 153 q 586 119 614 119 q 535 129 559 119 q 486 150 512 138 q 376 180 417 180 q 409 15 376 100 q 431 -43 421 -17 q 441 -88 441 -68 q 435 -124 441 -107 q 415 -155 428 -141 q 352 -187 385 -187 q 302 -178 319 -187 q 273 -155 285 -169 q 250 -98 250 -127 q 261 -43 250 -68 q 284 15 271 -17 q 319 180 318 100 q 226 159 277 180 q 152 129 175 138 q 112 119 128 119 q 79 126 95 119 q 52 144 64 132 q 28 194 28 168 q 36 235 28 220 q 56 262 44 250 q 104 288 83 288 q 150 277 126 288 q 202 253 174 266 q 319 218 278 218 z "},"•":{"ha":472,"x_min":43,"x_max":429,"o":"m 235 317 q 164 329 199 317 q 103 365 130 342 q 43 500 43 417 q 103 642 43 587 q 237 692 159 692 q 370 643 316 692 q 429 500 429 590 q 369 365 429 416 q 235 317 313 317 z "},"…":{"ha":924,"x_min":12,"x_max":911,"o":"m 12 163 l 154 305 l 296 163 l 154 21 l 12 163 m 319 163 l 462 305 l 604 163 l 462 21 l 319 163 m 627 163 l 770 305 l 911 163 l 770 21 l 627 163 z "},"‰":{"ha":1554,"x_min":42,"x_max":1502,"o":"m 210 904 q 252 922 229 922 q 302 898 275 922 q 473 604 473 748 q 299 292 473 450 q 243 266 270 266 q 192 292 217 266 q 43 598 43 445 q 210 904 43 751 m 151 766 q 121 697 121 746 q 172 557 121 649 q 296 433 240 433 q 328 444 313 433 q 359 513 359 464 q 310 652 359 562 q 184 777 241 777 q 151 766 168 777 m 245 -47 q 232 -33 232 -47 q 233 -26 232 -30 l 741 960 q 753 966 744 966 l 801 966 q 814 960 810 966 q 814 947 818 954 l 308 -40 q 297 -47 305 -47 l 245 -47 m 1239 639 q 1281 656 1258 656 q 1332 633 1304 656 q 1502 339 1502 483 q 1329 26 1502 184 q 1273 1 1299 1 q 1221 26 1246 1 q 1072 333 1072 180 q 1239 639 1072 486 m 1181 500 q 1151 432 1151 481 q 1202 292 1151 384 q 1326 168 1270 168 q 1358 178 1342 168 q 1389 248 1389 199 q 1339 387 1389 296 q 1213 511 1271 511 q 1181 500 1197 511 m 758 639 q 800 656 777 656 q 851 633 823 656 q 1021 339 1021 483 q 848 26 1021 184 q 792 1 819 1 q 741 26 765 1 q 591 333 591 180 q 758 639 591 486 m 700 500 q 670 432 670 481 q 721 292 670 384 q 845 168 789 168 q 877 178 861 168 q 908 248 908 199 q 859 387 908 296 q 732 511 790 511 q 700 500 716 511 z "},"‹":{"ha":504,"x_min":5,"x_max":460,"o":"m 5 390 l 347 721 l 460 650 l 256 393 l 460 131 l 347 60 l 5 390 z "},"›":{"ha":504,"x_min":52,"x_max":505,"o":"m 164 60 l 52 131 l 256 393 l 52 650 l 164 721 l 505 390 l 164 60 z "},"€":{"ha":700,"x_min":21,"x_max":677,"o":"m 554 398 l 541 361 q 510 344 534 344 l 268 344 q 375 83 283 145 q 447 61 407 61 q 513 75 486 61 q 559 113 541 90 q 611 228 591 155 q 635 257 623 257 q 644 256 642 257 l 642 257 q 673 242 669 252 q 677 224 677 232 q 665 47 665 83 q 659 5 665 11 q 632 0 652 0 q 607 17 612 0 q 591 54 602 33 q 572 36 589 50 q 536 9 555 21 q 425 -21 487 -21 q 309 9 363 -21 q 216 92 254 40 q 123 344 147 184 l 45 344 q 21 359 21 344 l 21 368 q 24 378 21 372 l 33 404 q 58 421 39 421 l 117 421 q 115 454 115 435 l 115 503 l 50 503 q 25 517 25 503 q 28 529 25 524 l 25 529 q 43 569 35 559 q 62 578 50 578 l 125 578 q 224 830 148 728 q 437 950 312 950 q 586 876 519 950 q 602 915 596 907 q 626 922 607 922 q 650 916 646 922 q 654 894 654 910 q 656 852 654 878 q 662 756 659 804 q 667 701 665 709 q 668 685 668 692 q 651 666 668 673 q 625 659 633 659 q 614 663 616 659 q 603 691 611 668 q 582 748 595 713 q 551 811 570 783 q 435 873 509 873 q 279 690 322 873 q 262 578 266 635 l 579 578 q 603 557 603 578 q 602 551 603 554 l 588 519 q 578 506 585 509 q 557 503 571 503 l 259 503 l 259 468 l 262 421 l 529 421 q 554 398 554 421 z "},"₰":{"ha":568,"x_min":15,"x_max":547,"o":"m 359 757 q 329 718 329 752 l 329 713 q 354 595 332 654 q 405 473 376 536 l 418 447 l 427 493 q 432 585 432 553 l 432 614 q 395 745 432 710 q 359 757 380 757 m 237 -175 l 204 -178 q 117 -156 155 -178 q 50 -75 50 -116 q 72 -26 50 -50 q 144 -19 144 54 l 144 -26 q 167 -87 144 -61 q 231 -113 191 -113 q 296 -104 263 -113 q 441 40 441 -65 l 441 49 q 401 241 435 154 q 257 107 342 157 q 118 62 182 62 q 60 78 86 62 q 35 127 35 94 q 65 264 35 178 q 126 424 112 366 q 124 425 126 425 q 102 409 122 425 q 58 366 83 393 l 40 390 q 26 410 33 398 q 15 425 18 422 q 203 525 144 525 q 249 476 249 525 q 207 330 249 428 q 161 177 161 196 q 166 156 161 157 q 179 155 172 155 q 268 198 216 155 q 367 320 319 241 q 224 661 224 544 q 228 696 224 679 q 272 787 241 753 q 347 821 302 821 l 361 821 q 492 761 450 821 q 526 628 526 713 l 526 618 q 508 483 526 541 q 483 401 490 425 q 468 357 476 376 q 547 92 547 203 q 458 -96 547 -26 q 237 -175 372 -163 z "},"℔":{"ha":751,"x_min":-32,"x_max":700,"o":"m 614 93 q 442 -7 529 -7 q 306 61 355 -7 q 169 0 216 0 q 90 30 121 0 q 60 107 60 60 q 72 192 60 155 q 83 231 83 228 q 85 237 83 235 l 85 236 q 100 283 95 271 l 100 282 q 106 299 103 293 q 109 313 109 306 q 113 330 110 321 q -32 465 -32 371 q 35 586 -32 534 q 250 640 117 640 q 416 621 336 640 q 433 616 421 619 q 459 609 446 614 q 481 601 473 604 q 524 585 489 597 q 569 572 558 572 q 588 579 579 572 q 599 593 596 586 q 635 636 606 636 q 693 604 667 636 q 700 589 700 596 q 585 510 700 536 q 532 504 559 504 q 391 519 480 504 q 186 543 250 543 q 33 469 33 543 q 64 419 33 437 q 73 416 66 418 q 87 412 79 415 q 105 406 94 410 q 135 395 115 401 q 179 510 144 422 l 292 504 l 274 450 q 248 371 262 416 q 374 358 263 369 l 416 490 l 538 478 l 496 349 q 654 207 654 328 q 614 93 654 151 m 475 292 q 403 90 403 111 q 427 69 403 69 q 519 135 479 69 q 559 225 559 186 q 475 292 559 279 m 227 310 q 163 88 163 109 q 180 66 163 66 q 215 78 193 66 q 354 298 290 114 q 227 310 300 298 m 366 330 q 357 309 359 315 q 353 298 355 302 l 385 298 l 366 330 z "},"№":{"ha":1139,"x_min":31,"x_max":1088,"o":"m 652 475 q 652 536 652 475 q 716 683 652 597 q 870 768 780 768 q 1024 683 960 768 q 1088 475 1088 597 q 1024 268 1088 353 q 870 182 960 182 q 716 268 780 182 q 652 475 652 353 m 597 5 l 565 5 l 290 737 l 290 148 q 251 46 290 88 q 155 5 213 5 q 64 53 98 5 q 31 166 31 100 q 95 231 31 231 q 159 161 159 231 q 142 114 159 135 q 115 59 115 79 q 157 40 115 40 q 229 72 200 40 q 257 148 257 103 l 257 822 q 199 948 216 930 q 77 966 182 966 l 77 1002 l 334 1002 q 402 958 387 1002 l 565 487 l 565 859 q 603 960 565 918 q 698 1002 640 1002 q 790 954 756 1002 q 823 840 823 905 q 759 775 823 775 q 695 846 695 775 q 711 892 695 871 q 739 947 739 928 q 696 966 739 966 q 625 935 654 966 q 597 859 597 903 l 597 5 m 652 100 l 652 146 l 1088 146 l 1088 100 l 652 100 m 652 5 l 652 51 l 1088 51 l 1088 5 l 652 5 m 930 475 q 930 529 930 475 q 919 661 930 584 q 873 739 907 739 q 830 661 839 739 q 821 475 821 584 q 830 289 821 366 q 873 212 839 212 q 919 289 907 212 q 930 475 930 366 z "},"™":{"ha":1076,"x_min":18,"x_max":1053,"o":"m 452 613 q 531 723 531 691 q 503 819 531 755 q 457 941 457 925 q 461 966 457 956 q 506 1005 471 987 q 612 1050 541 1023 q 627 1013 622 1025 q 576 975 581 998 q 576 958 576 970 q 589 918 576 945 q 718 1050 718 1050 q 769 1011 748 1029 q 820 977 790 992 q 887 1050 869 1030 l 968 1005 q 1053 966 1009 983 q 996 837 999 928 l 992 707 q 992 700 992 703 q 1031 631 992 644 l 977 527 q 910 584 928 545 q 891 692 891 623 q 891 701 891 696 l 892 789 q 932 892 892 838 q 831 947 863 943 q 818 900 818 927 q 817 837 818 873 l 812 707 q 812 700 812 703 q 844 626 812 637 l 766 527 q 682 611 740 561 q 702 649 692 623 q 711 701 711 675 l 724 916 q 684 939 694 939 q 665 935 674 939 q 606 882 655 930 q 636 794 636 831 q 570 668 636 756 q 659 631 602 645 l 602 527 q 451 606 508 576 l 451 584 q 274 532 341 532 q 165 556 206 532 q 18 771 64 616 q 180 954 81 860 q 145 968 163 968 q 34 932 120 968 l 115 1059 q 297 1048 213 1048 q 458 1059 381 1048 l 406 935 q 328 960 369 951 l 331 675 q 218 629 272 667 q 322 593 262 593 q 453 631 382 593 q 452 613 452 623 m 214 918 q 149 777 149 855 q 195 654 149 709 q 220 730 219 678 q 223 866 223 839 q 214 918 223 894 z "},"ℳ":{"ha":1083,"x_min":11,"x_max":1064,"o":"m 472 127 q 513 380 472 216 q 544 500 525 441 q 506 410 525 456 q 464 311 488 364 q 178 -16 320 -16 q 69 33 121 -16 q 11 168 11 87 q 35 234 11 211 q 90 257 58 257 q 161 189 161 257 q 146 140 161 165 q 129 94 129 109 q 146 69 129 79 q 178 58 164 58 q 405 353 268 58 q 426 399 410 361 q 464 490 441 437 q 513 605 486 543 q 563 722 539 666 q 637 879 612 835 q 673 935 649 908 q 746 987 719 987 q 766 976 757 987 q 774 951 774 964 q 760 920 774 939 q 635 458 710 818 q 620 366 628 412 q 606 280 612 320 q 594 207 600 240 q 587 155 588 174 q 618 237 603 187 q 701 461 668 370 q 757 604 734 553 q 942 950 847 815 q 959 975 944 961 q 988 988 975 988 q 1018 957 1018 988 q 1013 931 1018 944 q 950 697 996 891 q 892 441 905 503 q 868 224 868 323 q 878 97 868 132 q 896 62 888 62 q 915 75 903 62 q 971 163 930 90 l 971 160 q 1003 228 972 174 l 1003 227 q 1029 249 1010 249 q 1064 214 1064 249 q 1051 176 1064 195 q 998 61 1013 83 q 890 -7 950 -7 q 754 193 754 -7 q 827 585 754 346 q 672 184 755 422 q 561 4 613 17 q 547 1 550 1 q 472 127 472 1 z "},"㎏":{"ha":1425,"x_min":32,"x_max":1388,"o":"m 1177 576 q 1192 588 1186 586 l 1190 588 q 1307 646 1251 646 q 1388 557 1388 646 q 1326 496 1388 496 q 1264 539 1282 496 l 1265 539 q 1251 557 1256 547 q 1244 552 1249 557 q 1223 536 1239 547 q 1256 478 1247 505 q 1264 405 1264 450 q 1243 319 1264 359 q 1185 252 1222 279 q 981 196 1107 196 q 876 184 903 196 q 849 147 849 172 q 932 106 849 106 l 944 106 q 1112 110 1064 106 q 1270 72 1222 110 q 1318 -54 1318 33 q 988 -263 1318 -263 q 724 -125 724 -263 q 747 -56 724 -85 q 832 -4 771 -26 q 765 41 781 12 q 753 109 753 62 q 777 190 753 155 q 864 241 802 224 q 791 315 811 273 q 771 408 771 357 q 790 499 771 459 q 843 567 810 539 q 1009 624 911 624 q 1177 576 1107 624 m 1015 256 q 1047 256 1015 256 q 1106 291 1079 256 q 1134 407 1134 327 q 1106 522 1134 486 q 1017 557 1079 557 q 925 520 954 557 q 897 407 897 483 q 924 293 897 330 q 1015 256 951 256 m 934 -12 q 840 -111 840 -39 q 997 -195 840 -195 q 1215 -89 1215 -195 q 1186 -31 1215 -50 q 1092 -12 1157 -12 l 934 -12 m 69 913 l 59 913 l 32 913 l 32 978 l 264 993 l 264 353 q 333 420 307 393 q 378 463 359 447 q 412 496 396 479 q 452 551 452 536 q 440 559 452 554 q 400 564 429 564 l 350 564 l 350 629 l 681 629 l 679 564 q 481 461 581 564 l 422 405 q 610 136 559 215 q 733 74 649 79 l 733 4 l 403 4 l 403 74 l 446 75 q 482 81 481 77 q 485 89 483 85 q 476 100 482 94 q 471 113 471 106 q 400 216 433 167 q 329 319 368 265 l 313 301 q 289 277 300 289 q 264 254 278 265 l 264 118 q 271 85 264 94 q 298 75 278 76 l 323 75 l 359 74 l 359 4 l 39 4 l 39 74 l 103 75 q 130 85 122 76 q 137 118 137 94 l 137 866 q 124 904 137 895 q 76 913 111 913 l 69 913 z "},"ꝛ":{"ha":493,"x_min":47,"x_max":456,"o":"m 47 515 l 277 741 q 439 492 437 656 q 366 316 438 401 q 345 288 355 299 q 334 258 334 271 q 345 239 334 246 q 456 176 353 227 q 305 10 339 47 q 106 163 187 100 q 210 264 151 203 q 298 407 298 349 q 296 427 298 418 q 243 514 277 490 q 189 538 216 538 q 106 475 143 538 q 77 495 92 485 q 47 515 62 505 z "},"":{"ha":726,"x_min":29,"x_max":693,"o":"m 494 593 q 611 647 551 647 q 693 561 693 647 q 629 500 693 500 q 567 543 587 500 l 568 543 q 555 561 565 547 q 543 553 547 558 q 535 548 538 549 q 529 546 532 547 l 529 545 q 526 542 529 542 q 558 483 550 511 q 566 409 566 454 q 541 319 566 363 q 286 199 474 199 q 199 193 221 199 q 154 150 154 182 q 236 110 154 110 l 249 110 l 416 113 q 574 75 526 113 q 623 -50 623 37 q 293 -258 623 -258 q 29 -121 29 -258 q 52 -52 29 -81 q 135 0 74 -22 q 58 75 64 24 q 56 126 56 92 q 79 195 56 160 q 167 245 103 229 q 74 415 74 302 q 148 571 74 515 q 321 628 221 628 q 406 618 370 628 q 479 581 443 608 q 496 593 489 590 l 494 593 m 321 561 q 229 524 258 561 q 200 411 200 488 q 228 296 200 334 q 319 258 256 258 q 411 294 383 258 q 439 410 439 330 q 411 525 439 489 q 321 561 383 561 m 239 -8 q 144 -107 144 -35 q 301 -191 144 -191 q 519 -86 519 -191 q 490 -27 519 -46 q 395 -8 461 -8 l 239 -8 z "},"":{"ha":1364,"x_min":21,"x_max":1349,"o":"m 395 946 l 458 949 l 493 950 q 591 954 539 954 q 618 930 618 954 q 613 908 618 920 q 587 860 607 897 q 538 767 568 823 q 471 638 509 710 q 394 492 433 567 q 318 345 355 418 q 251 215 281 273 q 201 119 221 157 q 178 74 180 81 l 475 74 q 549 175 503 100 q 601 260 596 250 q 611 271 605 271 q 628 265 618 271 l 640 256 q 648 232 648 248 q 635 189 644 221 q 615 122 625 157 q 595 54 604 87 q 583 8 586 21 q 571 -13 579 -4 q 559 -21 564 -21 q 530 -16 541 -21 q 248 -2 476 -2 l 52 -2 q 32 1 42 -2 q 21 18 21 4 q 29 57 21 45 q 60 112 37 69 q 114 213 83 154 q 183 345 146 273 q 258 489 221 416 q 331 631 296 562 q 393 753 366 700 q 456 876 451 865 l 227 876 q 203 864 212 876 q 179 828 195 852 q 144 773 163 803 q 89 672 106 711 q 74 659 83 659 q 60 664 66 659 q 49 672 54 669 q 40 687 40 681 q 41 696 40 693 l 100 930 q 123 957 109 957 q 148 954 132 957 q 192 949 163 951 q 257 947 222 947 q 330 946 293 946 l 395 946 m 720 453 l 720 550 q 725 603 720 591 l 725 757 l 673 757 q 644 783 644 757 q 651 803 644 798 q 669 814 659 808 q 696 838 679 821 q 732 875 713 854 q 782 941 772 922 q 813 971 796 971 q 835 962 831 971 q 839 940 839 953 l 833 842 l 970 842 q 991 825 991 842 q 990 817 991 819 l 979 779 q 956 757 975 757 l 831 757 q 828 685 828 720 l 828 500 q 857 418 828 429 q 878 415 865 415 q 933 427 920 415 q 948 431 942 431 q 966 421 954 431 l 972 408 q 974 399 974 405 q 968 381 974 393 q 839 332 908 332 q 757 368 797 332 q 720 453 720 402 m 1005 337 q 986 363 986 337 l 986 381 q 990 401 986 396 q 1011 407 995 407 l 1053 407 q 1061 415 1061 407 q 1063 475 1063 442 l 1063 661 q 1046 724 1063 711 q 1032 734 1040 729 l 1012 747 q 997 768 997 753 l 997 774 q 1011 796 997 788 q 1042 815 1025 804 q 1077 837 1059 827 q 1134 861 1119 861 q 1153 853 1149 861 q 1160 835 1157 844 l 1160 787 q 1280 868 1224 868 q 1332 848 1315 868 q 1349 800 1349 828 q 1329 753 1349 772 q 1290 733 1308 733 q 1257 743 1272 733 q 1228 753 1242 753 q 1175 711 1196 753 q 1164 681 1164 689 l 1164 439 q 1181 407 1164 407 l 1231 407 q 1248 400 1244 407 q 1251 381 1251 393 l 1251 363 q 1234 337 1251 337 l 1218 337 q 1120 342 1186 342 l 1015 337 l 1005 337 m 673 279 l 1337 279 l 1337 170 l 673 170 l 673 279 z "},"ﬀ":{"ha":699,"x_min":30,"x_max":837,"o":"m 715 815 q 594 854 664 845 q 559 802 583 836 q 579 733 570 779 l 689 733 l 689 562 l 589 562 q 587 433 589 498 q 582 311 584 368 q 397 -268 578 180 q 340 -235 370 -241 q 394 107 382 -85 q 406 415 406 300 q 406 562 406 530 l 278 562 q 275 433 278 498 q 271 311 273 368 q 85 -268 269 183 q 30 -235 60 -243 q 85 125 76 -68 q 95 446 95 319 q 92 672 95 574 q 37 770 91 727 q 144 892 96 832 q 251 1015 193 953 q 483 976 335 1005 l 361 827 q 327 845 336 842 q 284 854 318 849 q 248 802 272 836 q 268 733 261 774 l 407 735 q 381 810 407 782 q 561 1015 503 953 q 696 994 625 1008 q 837 966 768 979 q 776 890 806 927 q 715 815 745 852 z "},"ﬁ":{"ha":633,"x_min":26,"x_max":623,"o":"m 623 941 q 500 791 562 865 q 403 820 458 806 l 492 968 q 623 941 572 950 m 373 829 q 281 854 315 849 q 245 802 269 836 q 264 733 258 774 l 433 733 l 433 732 l 585 661 q 567 607 577 633 q 557 553 557 581 l 549 277 q 549 271 549 274 q 569 218 549 239 q 615 186 589 197 l 479 21 l 336 137 q 376 231 376 184 l 380 538 q 374 562 380 549 l 275 562 q 272 433 275 498 q 269 311 269 368 q 82 -268 266 183 q 26 -235 57 -243 q 82 125 73 -68 q 92 446 92 319 q 89 672 92 574 q 34 770 87 727 q 141 892 92 832 q 248 1015 189 953 q 463 974 317 1007 l 373 829 z "},"ﬂ":{"ha":682,"x_min":26,"x_max":672,"o":"m 248 1015 q 471 977 288 1011 l 591 1041 q 569 872 572 960 q 566 694 566 785 l 564 296 q 573 239 564 245 q 672 176 583 232 q 522 10 596 92 q 322 163 404 100 q 397 301 396 228 l 401 711 q 397 818 401 783 q 281 854 347 846 q 245 802 269 836 q 264 733 258 774 l 352 733 l 352 562 l 275 562 q 272 433 275 498 q 269 311 269 368 q 82 -268 266 183 q 26 -235 57 -243 q 82 125 73 -68 q 92 446 92 319 q 89 672 92 574 q 34 770 87 727 q 141 892 92 832 q 248 1015 189 953 z "},"ﬃ":{"ha":979,"x_min":20,"x_max":981,"o":"m 981 942 q 859 793 920 866 q 790 818 833 807 q 741 830 746 829 l 846 969 q 981 942 929 952 m 703 840 q 635 854 658 850 q 599 802 623 836 q 618 733 612 774 l 787 733 l 787 732 l 939 661 q 921 607 931 633 q 911 553 911 581 l 903 277 q 903 271 903 274 q 923 218 903 239 q 969 186 943 197 l 833 21 l 690 137 q 730 231 730 184 l 734 538 q 728 562 734 549 l 629 562 q 626 433 629 498 q 623 311 623 368 q 436 -268 620 183 q 380 -235 411 -243 q 436 127 427 -68 q 446 422 446 321 q 445 562 446 524 l 269 562 q 266 433 269 498 q 262 311 264 368 q 76 -268 259 182 q 20 -235 51 -243 q 76 124 67 -68 q 85 444 85 317 q 83 672 85 572 q 28 770 81 727 q 135 892 86 832 q 241 1015 183 953 q 503 972 373 1000 l 370 825 q 279 854 321 854 q 275 854 277 854 q 239 802 262 836 q 258 733 252 774 l 431 731 q 431 736 431 734 q 405 802 431 769 q 602 1015 543 953 q 730 994 664 1008 q 804 978 796 979 l 703 840 z "},"ﬄ":{"ha":994,"x_min":30,"x_max":984,"o":"m 483 976 l 361 827 q 327 845 336 842 q 284 854 318 849 q 248 802 272 836 q 268 733 261 774 l 384 733 q 349 770 370 752 q 435 869 406 832 q 475 918 465 905 l 474 919 q 559 1015 514 966 l 561 1015 q 588 1011 575 1013 q 612 1008 602 1010 l 630 1005 l 632 1005 l 783 977 l 903 1041 q 881 872 884 960 q 878 694 878 785 l 876 296 q 885 239 876 245 q 984 176 895 232 q 833 10 908 92 q 634 163 715 100 q 709 301 708 228 l 713 711 q 709 818 713 783 q 594 854 659 845 q 559 802 583 836 q 579 733 570 779 l 680 733 l 680 562 l 589 562 q 587 433 589 498 q 582 311 584 368 q 397 -268 578 180 q 340 -235 370 -241 q 394 107 382 -85 q 406 415 406 300 q 406 562 406 530 l 278 562 q 275 433 278 498 q 271 311 273 368 q 85 -268 269 183 q 30 -235 60 -243 q 85 125 76 -68 q 95 446 95 319 q 92 672 95 574 q 37 770 91 727 q 144 892 96 832 q 251 1015 193 953 q 483 976 335 1005 z "},"ﬅ":{"ha":673,"x_min":27,"x_max":665,"o":"m 299 163 q 374 301 374 228 l 377 583 l 319 583 l 319 635 l 415 777 q 278 838 318 833 q 243 787 254 804 q 273 599 273 724 q 271 503 273 585 q 266 294 269 422 q 81 -284 264 169 q 27 -256 59 -263 q 83 104 74 -88 q 92 424 92 296 q 90 651 92 551 q 35 750 88 707 q 137 868 93 812 q 239 987 180 924 q 372 964 296 987 q 515 923 448 941 l 552 978 l 587 973 q 558 851 570 899 q 544 732 547 803 l 665 732 l 665 586 l 543 586 l 542 296 q 542 268 542 290 q 551 238 542 245 q 649 176 559 232 q 499 10 528 41 q 399 86 448 48 q 299 163 349 125 z "}}}
